<svg width="96" height="28" viewBox="0 0 96 28" fill="none" xmlns="http://www.w3.org/2000/svg">
<path d="M79.3197 16.7054C81.0515 16.7054 82.4555 18.1094 82.4555 19.8415C82.4555 21.5733 81.0515 22.9773 79.3197 22.9773C77.5876 22.9773 76.1836 21.5733 76.1836 19.8415C76.1836 18.1094 77.5876 16.7054 79.3197 16.7054Z" fill="#56369B"/>
<path d="M79.3197 8.8654C81.0515 8.8654 82.4555 10.2694 82.4555 12.0012C82.4555 13.7333 81.0515 15.1373 79.3197 15.1373C77.5876 15.1373 76.1836 13.7333 76.1836 12.0012C76.1836 10.2694 77.5876 8.8654 79.3197 8.8654Z" fill="#56369B"/>
<path d="M85.5914 12.7855C87.3232 12.7855 88.7275 14.1896 88.7275 15.9211C88.7275 17.6535 87.3232 19.0575 85.5914 19.0575C83.8598 19.0575 82.4553 17.6535 82.4553 15.9211C82.4553 14.1896 83.8598 12.7855 85.5914 12.7855Z" fill="#56369B"/>
<path d="M85.5914 4.94552C87.3232 4.94552 88.7275 6.34954 88.7275 8.08136C88.7275 9.81317 87.3232 11.2175 85.5914 11.2175C83.8598 11.2175 82.4553 9.81317 82.4553 8.08136C82.4553 6.34954 83.8598 4.94552 85.5914 4.94552Z" fill="#56369B"/>
<path d="M79.3197 1.02539C81.0515 1.02539 82.4555 2.42941 82.4555 4.16122C82.4555 5.89331 81.0515 7.29733 79.3197 7.29733C77.5876 7.29733 76.1836 5.89331 76.1836 4.16122C76.1836 2.42941 77.5876 1.02539 79.3197 1.02539Z" fill="#56369B"/>
<path d="M92.5534 8.86593C94.286 8.86593 95.6895 10.2694 95.6895 12.0018C95.6895 13.733 94.286 15.1379 92.5534 15.1379C90.407 15.1379 89.2935 12.963 87.9434 12.0018C89.2935 11.0392 90.407 8.86593 92.5534 8.86593Z" fill="#56369B"/>
<path d="M11.2518 18.0138C11.2518 18.5716 10.7991 19.0221 10.2435 19.0221C9.68508 19.0221 9.23487 18.5716 9.23487 18.0138C9.23487 17.4578 9.68508 17.0049 10.2435 17.0049C10.7991 17.0049 11.2518 17.4578 11.2518 18.0138Z" fill="#56369B"/>
<path d="M45.6843 3.61152C45.6843 3.11613 46.0855 2.71494 46.5809 2.71494C47.0763 2.71494 47.4772 3.11613 47.4772 3.61152C47.4772 4.10691 47.0763 4.5081 46.5809 4.5081C46.0855 4.5081 45.6843 4.10691 45.6843 3.61152Z" fill="#56369B"/>
<path d="M61.4043 4.54946H62.9666V15.4341H61.4043V4.54946Z" fill="#56369B"/>
<path d="M55.8709 13.975H58.9815V15.4341H48.8467C47.9457 15.4341 47.139 15.0756 46.5831 14.5016C46.0247 15.0756 45.2179 15.4341 44.317 15.4341H18.5542V3.38723H20.1159V13.975H44.317C45.1936 13.975 45.8007 13.372 45.8007 12.6258V6.83881H47.363V12.6258C47.363 13.372 47.9704 13.975 48.8467 13.975H52.7824C51.8229 13.7061 51.0564 12.9374 51.0564 10.9895C51.0564 6.11722 55.6825 6.29659 58.1682 7.15291V8.83133C56.3863 8.10508 52.6814 7.43279 52.6814 10.9895C52.6814 11.9107 52.9684 12.6373 53.5399 13.1726C54.1136 13.7083 54.8867 13.975 55.8709 13.975Z" fill="#56369B"/>
<path d="M64.0918 2.67145V3.51408H60.2815V2.67145H60.8689C60.6109 2.43402 60.4855 2.06843 60.4855 1.5599C60.4855 1.0489 60.6808 0.652092 61.0639 0.378792C61.7652 -0.121255 62.8995 -0.06539 63.657 0.196956L63.7153 0.21503V1.17651L63.5983 1.12941C62.9756 0.873909 62.0769 0.779705 61.6557 1.06451C61.4851 1.17651 61.4043 1.34 61.4043 1.5599C61.4043 2.65803 62.7379 2.67145 62.7941 2.67145H64.0918Z" fill="#56369B"/>
<path d="M16.0929 6.83882V15.4341H5.34843C3.88498 15.4341 2.7173 15.0307 1.84536 14.224C0.971241 13.4191 0.53418 12.3388 0.53418 10.9898C0.53418 9.64713 0.971241 8.56899 1.84536 7.76223C2.7173 6.95082 3.88498 6.54963 5.34843 6.54963V7.99993C4.36477 7.99993 3.59142 8.26858 3.01743 8.8045C2.44591 9.34234 2.15919 10.0708 2.15919 10.9898C2.15919 11.9108 2.44591 12.637 3.01743 13.1727C3.59142 13.7083 4.36477 13.975 5.34843 13.975H14.5308V6.83882H16.0929Z" fill="#56369B"/>
<path d="M24.4635 25.874C24.3441 26.0282 24.1535 26.1054 23.8917 26.1054C23.6294 26.1054 23.4391 26.0282 23.3197 25.874C23.2003 25.7196 23.1408 25.4739 23.1408 25.1371C23.1408 24.8285 23.2003 24.5875 23.3197 24.4144C23.4391 24.2413 23.6294 24.1548 23.8917 24.1548C24.1535 24.1548 24.3441 24.2413 24.4635 24.4144C24.5826 24.5875 24.6423 24.8285 24.6423 25.1371C24.6423 25.4739 24.5826 25.7196 24.4635 25.874ZM20.2567 25.5966C20.1723 25.6692 20.0929 25.7289 20.0181 25.7757C19.9385 25.4389 19.8086 25.1489 19.6287 24.9054C19.4485 24.6625 19.239 24.473 19.0005 24.3372C19.052 24.3043 19.1572 24.266 19.3165 24.2214C19.4754 24.177 19.6602 24.1548 19.8708 24.1548C19.9875 24.1548 20.0989 24.1641 20.2041 24.1827C20.3092 24.2016 20.3993 24.2331 20.4741 24.2775C20.5491 24.3221 20.6086 24.3816 20.6529 24.4563C20.6976 24.5314 20.7197 24.6272 20.7197 24.7441C20.7197 24.8564 20.6976 24.9654 20.6529 25.0703C20.6086 25.1754 20.5524 25.2716 20.4848 25.3581C20.4169 25.4446 20.3407 25.5243 20.2567 25.5966ZM12.9485 25.874C12.8291 26.0282 12.6385 26.1054 12.3767 26.1054C12.1143 26.1054 11.9237 26.0282 11.8046 25.874C11.6852 25.7196 11.6258 25.4739 11.6258 25.1371C11.6258 24.8285 11.6852 24.5875 11.8046 24.4144C11.9237 24.2413 12.1143 24.1548 12.3767 24.1548C12.6385 24.1548 12.8291 24.2413 12.9485 24.4144C13.0676 24.5875 13.1273 24.8285 13.1273 25.1371C13.1273 25.4739 13.0676 25.7196 12.9485 25.874ZM23.8917 23.6074C23.4752 23.6074 23.1477 23.7279 22.9092 23.9689C22.6706 24.2096 22.5512 24.599 22.5512 25.1371V25.2809C22.5512 25.3255 22.5537 25.371 22.5584 25.4178C22.5584 25.5394 22.5455 25.6413 22.5197 25.7229C22.494 25.8047 22.46 25.8705 22.4181 25.9195C22.376 25.9688 22.3291 26.0038 22.2777 26.0249C22.2259 26.046 22.1747 26.0564 22.1232 26.0564H20.6321C20.5971 26.0564 20.5631 26.0518 20.5302 26.0422C20.6239 25.986 20.7186 25.9124 20.8145 25.8212C20.9103 25.7303 20.9969 25.6273 21.0741 25.5125C21.1513 25.3981 21.2146 25.2716 21.2636 25.1335C21.3126 24.9955 21.3373 24.8518 21.3373 24.702C21.3373 24.3651 21.2179 24.0987 20.9793 23.902C20.7408 23.7054 20.3711 23.6074 19.8708 23.6074C19.7117 23.6074 19.5594 23.6189 19.4146 23.6424C19.2697 23.666 19.1374 23.6964 19.018 23.7336C18.8987 23.7711 18.7935 23.8109 18.7023 23.853C18.6111 23.8949 18.5374 23.9327 18.4813 23.965C18.4345 23.9932 18.4112 24.0401 18.4112 24.1055V24.5264C18.4112 24.55 18.417 24.5722 18.4287 24.5932C18.4402 24.6143 18.4673 24.639 18.5092 24.6669C18.6122 24.7419 18.7141 24.8167 18.8146 24.8915C18.9151 24.9662 19.0076 25.0541 19.0917 25.1546C19.1761 25.2551 19.2497 25.371 19.313 25.5019C19.376 25.633 19.4261 25.7921 19.4636 25.9792C19.328 26.0167 19.21 26.0389 19.1092 26.046C19.0085 26.0528 18.928 26.0564 18.8672 26.0564H17.8849C17.6929 26.0564 17.5398 26.0167 17.4253 25.937C17.3106 25.8576 17.2534 25.7382 17.2534 25.5791V21.9021C17.2534 21.8556 17.2298 21.832 17.1833 21.832H16.7342C16.6873 21.832 16.6641 21.8556 16.6641 21.9021V25.6845C16.6641 25.8247 16.6369 25.922 16.5833 25.9756C16.5293 26.0296 16.4439 26.0564 16.3269 26.0564H15.1132C15.1119 26.0564 15.1108 26.0564 15.1097 26.0564C15.1083 26.0564 15.1075 26.0564 15.1064 26.0564H14.1378C14.0348 26.0564 13.9376 26.0131 13.8467 25.9263C13.7552 25.8401 13.7073 25.6774 13.7027 25.4389C13.7073 25.3921 13.7109 25.343 13.7133 25.2913C13.7155 25.2398 13.7169 25.1886 13.7169 25.1371C13.7169 24.599 13.5975 24.2096 13.359 23.9689C13.1205 23.7279 12.7927 23.6074 12.3767 23.6074C11.9602 23.6074 11.6326 23.7279 11.3941 23.9689C11.1556 24.2096 11.0362 24.599 11.0362 25.1371C11.0362 25.1979 11.0373 25.2551 11.0398 25.3091C11.042 25.3628 11.0455 25.4153 11.0502 25.4668C11.0409 25.5558 11.0116 25.6273 10.9625 25.6807C10.9132 25.7349 10.8549 25.7826 10.787 25.8247C10.7191 25.8669 10.6468 25.9091 10.5696 25.951C10.4923 25.9932 10.4211 26.046 10.3554 26.109C10.29 26.172 10.2363 26.2517 10.1941 26.3475C10.1519 26.4436 10.1309 26.5641 10.1309 26.709V28.0002H10.7205V26.8566C10.7205 26.7254 10.7415 26.6293 10.7834 26.5685C10.8259 26.508 10.876 26.4587 10.9343 26.4212C10.9929 26.3839 11.0537 26.3489 11.117 26.3163C11.18 26.2834 11.235 26.2295 11.2818 26.1547C11.3988 26.3278 11.5497 26.454 11.7345 26.5335C11.9191 26.6129 12.1332 26.6529 12.3767 26.6529C12.5917 26.6529 12.7836 26.6225 12.952 26.5617C13.1205 26.5009 13.2629 26.4026 13.3801 26.2667C13.4266 26.3418 13.4828 26.4012 13.5485 26.4458C13.6139 26.4902 13.6827 26.5241 13.7552 26.5474C13.8278 26.571 13.9015 26.5863 13.9765 26.5932C14.0513 26.6003 14.1214 26.6036 14.1871 26.6036H15.1064C15.1075 26.6036 15.1086 26.6036 15.11 26.6036C15.1111 26.6036 15.1119 26.6036 15.1132 26.6036H16.4324C16.8018 26.6036 17.0452 26.482 17.1622 26.2388C17.223 26.3604 17.3095 26.4516 17.4218 26.5124C17.5341 26.5734 17.665 26.6036 17.8148 26.6036H18.9162C19.052 26.6036 19.2065 26.5885 19.3795 26.5581C19.5526 26.5277 19.7164 26.4705 19.8708 26.3861C20.0064 26.4705 20.1501 26.5277 20.3021 26.5581C20.4541 26.5885 20.6146 26.6036 20.783 26.6036H22.0742C22.2051 26.6036 22.3478 26.5838 22.5022 26.5441C22.6567 26.5042 22.7829 26.4097 22.8812 26.2599C22.9979 26.3954 23.1408 26.4948 23.3092 26.5581C23.4774 26.6211 23.6715 26.6529 23.8917 26.6529C24.0974 26.6529 24.2833 26.6235 24.4495 26.5652C24.6155 26.5066 24.7557 26.4165 24.8705 26.2949C24.9849 26.1733 25.0739 26.0167 25.1372 25.8247C25.2004 25.633 25.2319 25.4038 25.2319 25.1371C25.2319 24.599 25.1125 24.2096 24.874 23.9689C24.6355 23.7279 24.308 23.6074 23.8917 23.6074Z" fill="#5FC1B4"/>
<path d="M34.2769 23.7336H33.6525L34.9155 22.2532C34.9341 22.2157 34.9251 22.1828 34.8875 22.1546L34.5504 21.8739C34.5179 21.8556 34.4875 21.8624 34.4592 21.895L32.9227 23.7054C32.9131 23.715 32.9002 23.7301 32.8838 23.7512C32.8676 23.7722 32.8594 23.7944 32.8594 23.818V24.2107C32.8594 24.2578 32.883 24.2811 32.9295 24.2811H34.0592C34.5929 24.2811 34.8593 24.5174 34.8593 24.9898V25.4249C34.8593 25.5465 34.8525 25.647 34.8383 25.7264C34.824 25.8061 34.7961 25.8705 34.7542 25.9198C34.712 25.9685 34.6509 26.0038 34.5718 26.0249C34.4918 26.046 34.3867 26.0561 34.2558 26.0561H31.6383C31.637 26.0561 31.6359 26.0564 31.6345 26.0564C31.6334 26.0564 31.6326 26.0561 31.6315 26.0561H31.5543C31.3623 26.0561 31.2092 26.0167 31.0945 25.937C30.9797 25.8576 30.9225 25.7382 30.9225 25.5791V21.9021C30.9225 21.8556 30.8992 21.832 30.8527 21.832H30.4033C30.3565 21.832 30.3332 21.8556 30.3332 21.9021V26.4562C30.3332 26.8024 30.2373 27.0527 30.0454 27.2071C29.8537 27.3616 29.608 27.4388 29.3087 27.4388C29.1869 27.4388 29.0631 27.4224 28.9368 27.3895C28.8106 27.3569 28.6934 27.3019 28.586 27.2246C28.4781 27.1474 28.3905 27.0423 28.3229 26.9089C28.2549 26.7758 28.221 26.6082 28.221 26.4072C28.221 26.1966 28.2596 25.9956 28.3368 25.8036C28.4141 25.612 28.4946 25.4504 28.5789 25.3195C28.6022 25.2822 28.5953 25.2518 28.5578 25.2283L28.172 25.0177C28.1251 24.9898 28.0923 24.9922 28.0737 25.0248C27.9521 25.1979 27.8455 25.412 27.7544 25.6667C27.6632 25.922 27.6177 26.1873 27.6177 26.4633C27.6177 26.7115 27.6574 26.93 27.7368 27.1195C27.8162 27.309 27.9274 27.4689 28.0701 27.6001C28.2128 27.731 28.3858 27.8307 28.5893 27.8983C28.7928 27.9662 29.0212 28.0002 29.2737 28.0002C29.8068 28.0002 30.2149 27.8644 30.498 27.593C30.7809 27.3219 30.9225 26.945 30.9225 26.4633V26.3793C31.0537 26.5291 31.2407 26.6038 31.4842 26.6038H31.6315C31.6329 26.6038 31.634 26.6036 31.6351 26.6036C31.6364 26.6036 31.6372 26.6038 31.6383 26.6038H34.4735C34.6509 26.6038 34.8032 26.5849 34.9294 26.5474C35.0557 26.5102 35.16 26.4461 35.2419 26.3546C35.3235 26.2634 35.3846 26.1408 35.4243 25.986C35.464 25.8316 35.484 25.6377 35.484 25.4038V24.9827C35.484 24.5524 35.3717 24.2367 35.1472 24.0351C34.9226 23.8344 34.6323 23.7336 34.2769 23.7336Z" fill="#5FC1B4"/>
<path d="M38.4941 22.7585H38.9714C39.018 22.7585 39.0416 22.7349 39.0416 22.6881V22.1757C39.0416 22.1292 39.018 22.1056 38.9714 22.1056H38.4941C38.4473 22.1056 38.4237 22.1292 38.4237 22.1757V22.6881C38.4237 22.7349 38.4473 22.7585 38.4941 22.7585Z" fill="#5FC1B4"/>
<path d="M39.3502 22.7585H39.8275C39.8741 22.7585 39.8976 22.7349 39.8976 22.6881V22.1757C39.8976 22.1292 39.8741 22.1056 39.8275 22.1056H39.3502C39.3031 22.1056 39.2801 22.1292 39.2801 22.1757V22.6881C39.2801 22.7349 39.3031 22.7585 39.3502 22.7585Z" fill="#5FC1B4"/>
<path d="M49.6652 23.0392H50.1425C50.1891 23.0392 50.2126 23.0156 50.2126 22.9688V22.4564C50.2126 22.4099 50.1891 22.3863 50.1425 22.3863H49.6652C49.6184 22.3863 49.5951 22.4099 49.5951 22.4564V22.9688C49.5951 23.0156 49.6184 23.0392 49.6652 23.0392Z" fill="#5FC1B4"/>
<path d="M53.5492 25.874C53.4298 26.0282 53.2389 26.1054 52.9771 26.1054C52.7151 26.1054 52.5247 26.0282 52.4053 25.874C52.2859 25.7196 52.2262 25.4739 52.2262 25.1371C52.2262 24.8285 52.2859 24.5875 52.4053 24.4144C52.5247 24.2413 52.7151 24.1548 52.9771 24.1548C53.2389 24.1548 53.4298 24.2413 53.5492 24.4144C53.6683 24.5875 53.728 24.8285 53.728 25.1371C53.728 25.4739 53.6683 25.7196 53.5492 25.874ZM47.4303 25.6527C47.4136 25.7582 47.3824 25.8401 47.3356 25.8984C47.2888 25.957 47.223 25.9981 47.139 26.0211C47.0549 26.0446 46.9473 26.0564 46.8161 26.0564H44.739C44.7625 25.9488 44.774 25.8365 44.774 25.7196V24.5899C44.877 24.5385 44.9904 24.487 45.1144 24.4352C45.2385 24.384 45.3696 24.3372 45.5074 24.295C45.6454 24.2528 45.7867 24.2189 45.9318 24.1934C46.077 24.1677 46.2199 24.1548 46.3599 24.1548C46.5705 24.1548 46.746 24.1794 46.8862 24.2285C47.0267 24.2775 47.139 24.349 47.223 24.4423C47.3074 24.536 47.3668 24.6505 47.4021 24.786C47.4372 24.9221 47.4547 25.0763 47.4547 25.2494C47.4547 25.4131 47.4465 25.5476 47.4303 25.6527ZM39.8343 24.8564C39.8343 25.1371 39.7793 25.3556 39.6695 25.5125C39.5594 25.6692 39.3713 25.7475 39.1045 25.7475C38.88 25.7475 38.7069 25.6856 38.5853 25.5616C38.4637 25.4378 38.4027 25.254 38.4027 25.0108C38.4027 24.688 38.4719 24.4645 38.6097 24.3405C38.748 24.2167 38.9268 24.1548 39.1467 24.1548H39.8343V24.8564ZM53.9594 23.9689C53.7212 23.7279 53.3934 23.6074 52.9771 23.6074C52.5606 23.6074 52.2334 23.7279 51.9948 23.9689C51.756 24.2096 51.6369 24.599 51.6369 25.1371V25.2809C51.6369 25.3255 51.6391 25.371 51.644 25.4178C51.644 25.5394 51.6309 25.6412 51.6054 25.7229C51.5797 25.8047 51.5457 25.8705 51.5036 25.9195C51.4614 25.9688 51.4146 26.0038 51.3633 26.0249C51.3119 26.046 51.2604 26.0564 51.2089 26.0564H50.8299C50.6382 26.0564 50.4851 26.0167 50.3704 25.937C50.2559 25.8576 50.1987 25.7382 50.1987 25.5791V23.804C50.1987 23.7572 50.1751 23.7336 50.1286 23.7336H49.6792C49.6326 23.7336 49.6091 23.7572 49.6091 23.804V25.6845C49.6091 25.8247 49.582 25.9219 49.5286 25.9756C49.4746 26.0296 49.3892 26.0564 49.2722 26.0564H48.83C48.8215 26.0564 48.8141 26.0572 48.8059 26.0575C48.7974 26.0572 48.79 26.0564 48.7812 26.0564H48.7037C48.512 26.0564 48.3587 26.0167 48.2442 25.937C48.1295 25.8576 48.0722 25.7382 48.0722 25.5791C48.0722 25.5418 48.0733 25.4961 48.0758 25.4422C48.078 25.3888 48.0794 25.3312 48.0794 25.2705C48.0794 25.0459 48.0533 24.8331 48.0021 24.6318C47.9506 24.4308 47.8605 24.2539 47.7318 24.1019C47.6031 23.9502 47.4312 23.8295 47.2162 23.7405C47.0009 23.652 46.7296 23.6074 46.402 23.6074C46.1074 23.6074 45.8196 23.6495 45.5391 23.7336C45.2584 23.818 45.0032 23.9209 44.774 24.0422V23.804C44.774 23.7572 44.7507 23.7336 44.7042 23.7336H44.2548C44.208 23.7336 44.1847 23.7572 44.1847 23.804V25.6845C44.1847 25.8247 44.1579 25.9219 44.1039 25.9756C44.05 26.0296 43.9648 26.0564 43.8481 26.0564H42.6342C42.6328 26.0564 42.6317 26.0564 42.6303 26.0564C42.6292 26.0564 42.6281 26.0564 42.627 26.0564H41.8553C41.854 26.0564 41.8529 26.0564 41.8515 26.0564C41.8504 26.0564 41.8493 26.0564 41.8482 26.0564H41.0765C41.0749 26.0564 41.0738 26.0564 41.0724 26.0564C41.0713 26.0564 41.0705 26.0564 41.0691 26.0564H40.7608C40.6438 26.0564 40.5584 26.0296 40.5044 25.9756C40.4508 25.9219 40.4237 25.8247 40.4237 25.6845V23.3056C40.4237 23.2588 40.4001 23.2352 40.3536 23.2352H39.9044C39.8579 23.2352 39.8343 23.2588 39.8343 23.3056V23.6074H39.1467C38.9734 23.6074 38.8063 23.632 38.645 23.681C38.4834 23.7301 38.3421 23.8097 38.2206 23.9196C38.0984 24.0294 38.0004 24.1734 37.9256 24.3511C37.8509 24.5289 37.8133 24.749 37.8133 25.0108C37.8133 25.2307 37.8459 25.4211 37.9114 25.5826C37.9771 25.7442 38.0672 25.8773 38.1817 25.9827C38.2964 26.0879 38.432 26.1662 38.5889 26.2177C38.7455 26.2692 38.915 26.2949 39.0974 26.2949C39.2521 26.2949 39.3945 26.2738 39.5257 26.2317C39.6566 26.1898 39.7689 26.1265 39.8625 26.0422C39.9044 26.2434 39.9896 26.3872 40.1183 26.474C40.2473 26.5603 40.4261 26.6035 40.6553 26.6035H41.0691C41.0708 26.6035 41.0719 26.6035 41.0735 26.6035C41.0746 26.6035 41.0754 26.6035 41.0765 26.6035H41.8482C41.8496 26.6035 41.8507 26.6035 41.8518 26.6035C41.8531 26.6035 41.854 26.6035 41.8553 26.6035H42.627C42.6284 26.6035 42.6295 26.6035 42.6306 26.6035C42.632 26.6035 42.6328 26.6035 42.6342 26.6035H43.9533C44.1496 26.6035 44.3063 26.5734 44.4235 26.5124C44.47 26.5734 44.5495 26.6035 44.6617 26.6035H47.0198C47.2488 26.6035 47.4372 26.571 47.5845 26.5055C47.7318 26.4401 47.8452 26.3278 47.9249 26.1687C47.9764 26.3089 48.0665 26.4165 48.1952 26.4913C48.3236 26.5663 48.4699 26.6035 48.6336 26.6035H48.7812C48.7897 26.6035 48.7971 26.6027 48.8053 26.6025C48.8138 26.6027 48.8212 26.6035 48.83 26.6035H49.3777C49.7471 26.6035 49.9903 26.482 50.1075 26.2388C50.168 26.3604 50.2545 26.4516 50.3668 26.5124C50.4794 26.5734 50.6103 26.6035 50.7598 26.6035H51.1599C51.2908 26.6035 51.4334 26.5838 51.5876 26.5441C51.7421 26.5041 51.8683 26.4097 51.9666 26.2599C52.0836 26.3954 52.2262 26.4948 52.3949 26.5581C52.5631 26.6211 52.7572 26.6528 52.9771 26.6528C53.1828 26.6528 53.3687 26.6235 53.535 26.5652C53.7009 26.5066 53.8414 26.4165 53.9561 26.2949C54.0706 26.1733 54.1596 26.0167 54.2226 25.8247C54.2858 25.633 54.3173 25.4038 54.3173 25.1371C54.3173 24.599 54.1982 24.2096 53.9594 23.9689Z" fill="#5FC1B4"/>
</svg>
