<svg width="44" height="32" viewBox="0 0 44 32" fill="none" xmlns="http://www.w3.org/2000/svg">
<g clip-path="url(#clip0_218_8274)">
<path d="M25.2283 18.6776C25.2145 18.9533 25.22 19.2262 25.242 19.5018C25.344 20.734 26.0965 21.2743 27.3507 21.1943C28.0564 21.1475 28.729 20.9104 29.3988 20.6954C30.6971 20.2792 31.943 19.7279 33.1724 19.1462C33.4646 19.0084 33.7265 18.8127 33.9828 18.6198C34.2199 18.4406 34.3274 18.198 34.3136 17.9003C34.2943 17.4758 34.1317 17.1147 33.8367 16.8088C33.5749 16.5386 33.2524 16.3594 32.9161 16.1968C31.8273 15.6758 30.7467 15.1411 29.6386 14.667C29.261 14.5071 29.1838 14.27 29.3961 13.9282C30.9617 11.4226 32.9492 9.3442 35.5595 7.90531C36.4995 7.38709 37.4918 7.02324 38.5669 6.91573C39.1816 6.85234 39.7852 6.89644 40.3724 7.08939C40.8547 7.24927 41.2241 7.54421 41.4777 7.99903C42.153 9.21188 42.2275 10.4716 41.7975 11.7727C41.6789 12.1365 41.5218 12.4866 41.3371 12.8201C41.2131 13.0434 41.0532 13.2363 40.8162 13.3439C40.6012 13.4431 40.4964 13.3962 40.4578 13.1674C40.4247 12.98 40.4247 12.787 40.4165 12.5968C40.3944 12.0648 40.2042 11.6018 39.8679 11.1883C39.6171 10.8796 39.3084 10.6701 38.9307 10.5626C38.0376 10.309 37.139 10.2814 36.2459 10.5681C34.6499 11.0835 33.2662 11.9601 32.0175 13.0654C31.9651 13.1123 31.9155 13.1647 31.8686 13.2198C31.5847 13.5726 31.6536 13.8924 32.0616 14.0881C32.781 14.4354 33.5087 14.769 34.2282 15.1218C35.2674 15.6317 36.301 16.1555 37.3375 16.6737C37.5525 16.7812 37.7592 16.8997 37.9329 17.0679C38.2637 17.3876 38.294 17.7542 38.0183 18.1264C37.8585 18.3386 37.66 18.515 37.4477 18.6666C34.8263 20.5245 32.0864 22.1618 29.0515 23.2672C28.0977 23.6145 27.1192 23.8047 26.1021 23.7413C25.1649 23.6834 24.5061 23.2314 24.156 22.3493C23.861 21.605 23.6102 20.8442 23.4696 20.0531C23.4255 19.805 23.318 19.659 23.0727 19.568C22.1961 19.2455 21.3085 19.0636 20.3686 19.1986C19.8366 19.2758 19.3597 19.4798 18.9187 19.7775C18.1965 20.2681 17.5046 20.8001 16.8651 21.3983C16.2201 22.002 15.5778 22.6111 14.9218 23.2065C13.651 24.356 12.2507 25.2877 10.6024 25.8224C9.56592 26.1587 8.5157 26.1973 7.4517 26.0237C7.29734 25.9989 7.154 25.9382 7.01342 25.8693C5.5387 25.1526 4.10533 24.367 2.74363 23.4546C2.56446 23.3361 2.39907 23.1955 2.23919 23.0549C2.15925 22.986 2.09586 22.8923 2.04348 22.8013C2.00214 22.7297 1.99387 22.6387 2.05451 22.5643C2.12618 22.4788 2.2006 22.5257 2.27778 22.5643C3.41345 23.1046 4.64284 23.3058 5.86397 23.518C6.2168 23.5787 6.57238 23.6393 6.92797 23.6586C8.6866 23.7523 10.3929 23.5621 12.0633 22.9337C13.9129 22.239 15.4427 21.1199 16.8044 19.7334C17.6286 18.8927 18.4914 18.1098 19.5196 17.5227C20.2666 17.0954 21.0577 16.806 21.9287 16.7977C22.3229 16.795 22.7116 16.8722 23.0947 16.9741C23.6378 17.1175 24.1808 17.2525 24.7238 17.3986C25.1152 17.5034 25.2283 17.6605 25.2283 18.0657C25.2283 18.2697 25.2283 18.4709 25.2283 18.6749V18.6776Z" fill="#333333"/>
<path d="M5.66079 6.61588C5.647 6.19965 5.72694 5.80548 5.91163 5.43335C6.33612 4.58711 7.2182 4.26185 8.092 4.63121C8.20226 4.67807 8.30977 4.73045 8.409 4.79385C10.0656 5.86336 11.7168 6.93839 13.2356 8.20362C14.4815 9.24005 15.5979 10.4005 16.5516 11.7126C16.7777 12.0213 16.9679 12.3521 17.1691 12.6774C17.544 13.2838 17.1305 14.006 16.6481 14.2155C16.4028 14.323 16.1437 14.3616 15.8846 14.3974C14.2279 14.6207 12.5685 14.8247 10.9036 14.9983C10.3689 15.0535 9.8341 15.1086 9.3021 15.1803C8.42003 15.2988 7.75847 14.9708 7.31192 14.2127C6.94531 13.587 6.74408 12.9007 6.61177 12.1922C6.30305 10.5246 6.00259 8.8569 5.70213 7.18647C5.66906 6.99903 5.66906 6.80608 5.65527 6.61588H5.66079Z" fill="#3498CB"/>
<path d="M21.0031 0.000335542C21.2264 -0.00242094 21.4276 0.0113615 21.6261 0.0582217C22.1278 0.173994 22.4861 0.466181 22.6901 0.934783C22.8555 1.31242 22.9161 1.70108 22.8693 2.12283C22.7645 3.049 22.6928 3.97794 22.6102 4.90687C22.4723 6.46704 22.3373 8.02445 22.2022 9.58462C22.125 10.4887 22.0478 11.3929 21.9734 12.2998C21.9541 12.5285 21.9017 12.7491 21.8108 12.9586C21.571 13.5071 21.1134 13.7386 20.529 13.6008C20.0521 13.4878 19.6497 13.237 19.2913 12.9089C18.7593 12.4183 18.3404 11.8394 17.9903 11.2082C17.5217 10.3675 17.213 9.46334 16.9676 8.53716C16.386 6.343 15.6142 4.20948 14.9278 2.0484C14.9058 1.97949 14.8782 1.91333 14.8589 1.84442C14.7432 1.42268 14.8865 1.13325 15.3055 1.01748C15.639 0.926513 15.9808 0.863114 16.3226 0.802472C17.5934 0.57644 18.8641 0.372461 20.1266 0.0968124C20.416 0.0334133 20.7164 -0.00517742 20.9976 0.00584851L21.0031 0.000335542Z" fill="#FFCD34"/>
<path d="M25.1847 0.246094C26.1632 0.301223 27.0371 0.502447 27.9081 0.717452C30.3944 1.33215 32.7485 2.2666 34.9426 3.59798C35.527 3.95081 36.0866 4.33947 36.591 4.80256C36.784 4.98173 36.9714 5.16641 37.101 5.40072C37.2416 5.65156 37.2195 5.77835 37.0045 5.96579C36.8336 6.1174 36.6351 6.23042 36.4284 6.32689C34.7773 7.09595 33.0765 7.72167 31.2875 8.07175C30.4468 8.23714 29.5978 8.21784 28.7599 8.0111C27.3844 7.6693 26.4003 6.83133 25.7856 5.57162C25.2977 4.57377 24.9008 3.53458 24.4818 2.50641C24.3164 2.09845 24.129 1.69876 23.9994 1.27702C23.823 0.700913 24.0215 0.381161 24.6224 0.29571C24.8346 0.265389 25.0496 0.259876 25.1847 0.251607V0.246094Z" fill="#4AC2C4"/>
<path d="M7.16025 22.7385C6.10176 22.7495 5.06808 22.5979 4.08402 22.1872C2.73885 21.6249 1.75479 20.6739 1.07669 19.3949C0.880984 19.0255 0.701812 18.6479 0.522641 18.273C0.296609 17.7989 0.481294 17.4598 1.00227 17.424C2.19583 17.3441 3.36457 17.0932 4.54986 16.9637C4.83378 16.9334 5.12045 16.9085 5.40713 16.903C6.04663 16.8865 6.53177 17.1677 6.86806 17.7079C7.10236 18.0828 7.3091 18.4742 7.48827 18.8767C7.88245 19.7725 8.27111 20.6684 8.65978 21.567C8.67907 21.6111 8.69285 21.6552 8.70664 21.7021C8.8803 22.2589 8.60465 22.6861 8.02027 22.733C7.73635 22.755 7.44692 22.7358 7.16025 22.7358V22.7385Z" fill="#3498CB"/>
<path d="M43.273 17.327C43.262 18.482 43.1297 19.6149 42.7052 20.6982C42.5398 21.1227 42.3386 21.5279 42.085 21.9083C41.4703 22.8317 40.5441 23.1267 39.5269 22.6911C38.5622 22.2777 37.6112 21.8311 36.6547 21.3928C36.2908 21.2247 36.2798 20.9931 36.6271 20.7671C37.0682 20.4832 37.523 20.2186 37.9695 19.9429C38.4822 19.6259 38.9095 19.218 39.2871 18.7439C39.6455 18.2918 39.7502 17.7874 39.7144 17.2333C39.6978 16.9577 39.6455 16.6875 39.5738 16.4229C39.4608 15.9956 39.5518 15.5932 39.7199 15.2018C39.8136 14.984 39.9763 14.8297 40.2078 14.758C40.7233 14.5954 41.2608 14.4961 41.7928 14.5044C42.3358 14.5127 42.7768 14.7718 42.9891 15.3175C43.1738 15.7917 43.2537 16.2823 43.2675 16.7868C43.273 16.9659 43.2675 17.1451 43.2675 17.3243L43.273 17.327Z" fill="#EC1E69"/>
<path d="M30.51 31.9924C29.1097 31.9979 27.7204 31.8656 26.3504 31.5651C26.2457 31.5431 26.1409 31.521 26.0362 31.4907C25.5869 31.3584 25.314 31.0111 25.3498 30.5232C25.4243 29.5474 25.5042 28.5716 25.6971 27.6096C25.7164 27.5076 25.7605 27.4028 25.8157 27.3119C25.9066 27.163 26.0362 27.0969 26.2098 27.1768C26.2429 27.1906 26.276 27.2044 26.3091 27.2209C28.4095 28.227 30.6037 29.0099 32.7758 29.8396C32.9439 29.903 33.1038 29.9829 33.2747 30.0353C33.5173 30.1097 33.6138 30.2889 33.6496 30.5122C33.7213 30.9615 33.5504 31.3088 33.1837 31.5624C32.7565 31.8573 32.2631 31.9593 31.7614 31.9896C31.3452 32.0144 30.9262 31.9951 30.5072 31.9951L30.51 31.9924Z" fill="#673468"/>
<path d="M20.3854 25.8998C20.3496 26.4787 20.2007 27.176 19.9582 27.8569C19.8727 28.0967 19.6963 28.218 19.4565 28.2649C19.2167 28.309 18.9796 28.2869 18.7453 28.2373C18.2988 28.1408 17.8715 27.992 17.4663 27.7797C16.4464 27.2505 15.4679 26.6551 14.5941 25.8998C14.368 25.7041 14.1558 25.4918 13.9683 25.2603C13.7781 25.026 13.7974 24.9075 14.0373 24.731C14.6933 24.2487 15.3025 23.7112 15.8924 23.1543C16.3499 22.7243 16.3389 22.7436 16.8902 23.0441C17.877 23.5816 18.8308 24.1715 19.8011 24.7338C20.3496 25.0536 20.3854 25.1225 20.3799 25.9026L20.3854 25.8998Z" fill="#4AC2C4"/>
<path d="M35.8574 29.4233C35.3888 29.4592 35.1297 29.076 35.1738 28.7039C35.3778 27.0059 35.4991 25.3024 35.5459 23.5934C35.5487 23.4638 35.5625 23.3315 35.59 23.202C35.6782 22.7554 35.9566 22.5514 36.4142 22.601C36.6899 22.6314 36.9435 22.7389 37.1943 22.8519C37.5747 23.0255 37.9248 23.2571 38.2721 23.4886C38.6883 23.767 39.1018 24.051 39.5373 24.3045C39.8929 24.5113 39.9453 24.6491 39.8295 25.0433C39.6448 25.669 39.3444 26.2396 38.9474 26.7523C38.465 27.3753 37.9606 27.9817 37.3955 28.5357C37.1557 28.77 36.9049 28.9906 36.6237 29.1753C36.3894 29.3269 36.1386 29.4344 35.8629 29.4233H35.8574Z" fill="#673468"/>
<path d="M18.8502 15.2051C19.0294 15.2133 19.2086 15.2106 19.385 15.2602C19.691 15.3457 19.7819 15.5496 19.6165 15.8253C19.5256 15.9769 19.4153 16.1175 19.272 16.2332C18.3375 16.9747 17.4141 17.7328 16.4741 18.466C15.7106 19.0614 14.8616 19.1772 13.9409 18.8629C13.5275 18.7223 13.1609 18.5156 12.8218 18.2455C12.2788 17.8182 11.7385 17.3827 11.1293 17.0464C10.9943 16.972 10.8785 16.8617 10.782 16.7404C10.6332 16.553 10.6525 16.429 10.8564 16.2994C11.0218 16.1974 11.2037 16.1506 11.3967 16.1257C12.4497 15.9907 13.5027 15.8529 14.5556 15.7178C15.8209 15.5579 17.0888 15.4008 18.3541 15.2464C18.5195 15.2271 18.6876 15.2189 18.853 15.2051H18.8502Z" fill="#F16838"/>
<path d="M12.8357 1.79426C13.1527 1.76394 13.354 1.94863 13.4725 2.23806C13.6875 2.7673 13.8997 3.30206 14.1065 3.83406C14.5696 5.02486 15.0079 6.22393 15.402 7.43954C15.4599 7.62147 15.5343 7.80064 15.5371 7.99359C15.5426 8.3602 15.3304 8.50354 15.0079 8.33815C14.87 8.26924 14.7432 8.17552 14.6219 8.07904C12.8771 6.66497 11.1322 5.24813 9.39014 3.83406C9.34328 3.79547 9.29918 3.75688 9.24956 3.72104C9.10346 3.60803 9.08968 3.46469 9.15308 3.30481C9.2468 3.07051 9.42046 2.90237 9.65201 2.81692C10.5589 2.48614 11.4713 2.16639 12.3837 1.84664C12.5187 1.79978 12.6648 1.78875 12.8302 1.79151L12.8357 1.79426Z" fill="#FFCD34"/>
<path d="M31.6123 28.7342C31.3835 28.7259 31.1657 28.6708 30.9507 28.5853C30.5593 28.431 30.1954 28.227 29.8316 28.023C28.8199 27.4607 27.8469 26.8295 26.7939 26.3443C26.5844 26.2478 26.4108 26.1017 26.2895 25.9005C26.0552 25.5091 26.2095 25.1315 26.6533 25.035C27.4114 24.8724 28.1749 24.74 28.9219 24.525C29.3244 24.4093 29.7185 24.277 30.1017 24.1088C30.1789 24.0757 30.2561 24.0427 30.336 24.0206C30.6971 23.9131 30.8404 23.9737 30.9672 24.3321C31.2263 25.0626 31.4799 25.7958 31.7253 26.5318C31.8851 27.0059 32.034 27.4855 32.1746 27.9651C32.3234 28.4641 32.1194 28.7342 31.6095 28.7342H31.6123Z" fill="#673468"/>
<path d="M23.7288 8.25501C23.7564 7.47769 23.7812 6.70311 23.8115 5.92579C23.8143 5.81828 23.817 5.70802 23.8446 5.60604C23.919 5.33314 24.1892 5.25596 24.4042 5.44065C24.4565 5.48751 24.5034 5.54539 24.542 5.60328C25.1484 6.50465 25.719 7.42807 26.251 8.37906C26.8519 9.45408 26.7168 10.4381 26.0443 11.4002C25.6859 11.9129 25.2945 12.3925 24.6991 12.6544C24.5227 12.7315 24.3408 12.7867 24.1451 12.7756C23.8942 12.7591 23.7068 12.6323 23.6379 12.3953C23.5882 12.2243 23.5359 12.0479 23.5579 11.866C23.7123 10.6669 23.693 9.45684 23.7316 8.25226L23.7288 8.25501Z" fill="#4AC2C4"/>
<path d="M24.9613 16.4918C24.7463 16.5028 24.5341 16.4835 24.3218 16.4366C23.528 16.2602 22.7534 16.0204 22.0009 15.7089C21.8685 15.6538 21.7362 15.5904 21.6232 15.5077C21.2594 15.2348 21.2814 14.667 21.6921 14.5016C23.3653 13.829 24.9723 13.002 26.6841 12.4232C27.0838 12.2881 27.4559 12.4866 27.5497 12.8725C27.5965 13.0599 27.5882 13.2529 27.5276 13.4403C27.4918 13.5533 27.4504 13.6664 27.3953 13.7739C27.048 14.4409 26.6759 15.097 26.3533 15.7778C26.1163 16.2795 25.7221 16.4642 25.2122 16.4973C25.1295 16.5028 25.044 16.4973 24.9613 16.4973V16.4918Z" fill="#FFCD34"/>
<path d="M10.8898 22.2758C10.5149 22.2841 10.2669 22.1463 10.0877 21.8789C9.96088 21.6887 9.87543 21.4792 9.78723 21.2697C9.28003 20.0707 8.77835 18.8716 8.27392 17.6725C8.21327 17.5292 8.1609 17.3803 8.16641 17.2232C8.17744 16.8979 8.43655 16.727 8.73425 16.8511C8.83348 16.8924 8.92445 16.9503 9.01541 17.0082C10.2779 17.8048 11.5376 18.6042 12.8001 19.4036C13.0537 19.5635 13.288 19.7426 13.4589 19.999C13.627 20.2581 13.6325 20.5145 13.4782 20.7736C13.412 20.8838 13.3321 20.9941 13.2383 21.085C12.6512 21.6529 11.9593 22.036 11.1655 22.2345C11.0607 22.2593 10.9532 22.2676 10.8953 22.2758H10.8898Z" fill="#3498CB"/>
<path d="M20.8897 28.5811C20.9172 27.8534 21.0275 27.1339 21.1929 26.4255C21.2287 26.2739 21.2949 26.1333 21.3886 26.0065C21.5981 25.7253 21.8655 25.6178 22.2045 25.7143C22.8523 25.899 23.4422 26.2132 23.999 26.5826C24.3243 26.7976 24.4538 27.1201 24.3904 27.5171C24.2636 28.3413 24.1423 29.1682 24.0155 29.9924C23.999 30.0971 23.9769 30.2046 23.9384 30.3039C23.8253 30.5933 23.5965 30.7394 23.2906 30.6898C22.8082 30.6126 22.3341 30.5023 21.882 30.3011C21.2287 30.0117 20.8621 29.5348 20.8869 28.7988C20.8869 28.7272 20.8869 28.6555 20.8869 28.5838L20.8897 28.5811Z" fill="#F16838"/>
<path d="M5.68513 12.799C5.69064 13.036 5.64378 13.2069 5.46736 13.3062C5.31024 13.3944 5.16415 13.3282 5.03184 13.24C4.08637 12.6143 3.13814 11.9941 2.20369 11.3518C1.74887 11.0404 1.66893 10.693 1.86188 10.1665C1.97214 9.86058 2.11824 9.57666 2.30292 9.30928C2.74672 8.66978 3.27045 8.09643 3.83828 7.56443C3.87412 7.53135 3.90995 7.50103 3.94854 7.47346C4.33169 7.18679 4.64042 7.27775 4.73965 7.75187C4.88575 8.45201 4.99325 9.16043 5.10351 9.86609C5.24684 10.7868 5.38191 11.7047 5.64929 12.6005C5.6741 12.6805 5.68237 12.7632 5.68788 12.799H5.68513Z" fill="#3498CB"/>
<path d="M30.7085 19.207C30.1903 19.2125 29.7878 19.0747 29.4874 18.7329C29.0601 18.245 28.5777 17.8177 28.1229 17.3602C28.0126 17.2499 27.8969 17.1451 27.8031 17.0211C27.624 16.784 27.5633 16.5387 27.748 16.2631C27.9217 16.0067 28.065 15.7283 28.2276 15.4637C28.4206 15.1495 28.688 15.042 29.0518 15.1164C29.2062 15.1495 29.344 15.2239 29.4818 15.2928C30.4852 15.7972 31.4555 16.3651 32.4175 16.9439C32.8144 17.1837 32.9026 17.5559 32.6683 17.9583C32.6215 18.041 32.5636 18.1182 32.5002 18.1899C32.2576 18.4572 31.9765 18.6778 31.6925 18.8983C31.3893 19.1326 31.0172 19.1905 30.7085 19.2098V19.207Z" fill="#EC1E69"/>
<path d="M0.466797 14.5126C0.480579 14.0688 0.497118 13.5809 0.656994 13.1096C0.849948 12.55 1.20829 12.3984 1.74856 12.6465C1.86709 12.7016 1.98011 12.7705 2.09312 12.8367C2.96141 13.3632 3.82695 13.8897 4.69248 14.4189C4.99845 14.6064 5.2934 14.8103 5.51943 15.097C5.70963 15.3368 5.68206 15.4553 5.40917 15.5959C5.29064 15.6566 5.16109 15.6759 5.03153 15.6979C3.90137 15.8826 2.77122 16.0645 1.64106 16.2465C1.52253 16.2658 1.404 16.2795 1.28547 16.2823C0.858217 16.2933 0.645968 16.1114 0.5743 15.6952C0.508144 15.3175 0.510901 14.9344 0.469553 14.5071L0.466797 14.5126Z" fill="#3498CB"/>
<path d="M20.4264 22.2827C20.2362 22.5473 20.0708 22.7788 19.9027 23.0104C19.8034 23.1454 19.707 23.2805 19.5995 23.4101C19.3817 23.6747 19.3045 23.6747 19.0592 23.4211C18.9682 23.3274 18.8828 23.2254 18.8028 23.1234C18.5741 22.8312 18.3535 22.5362 18.1192 22.2468C18.02 22.1228 18.0145 22.0235 18.1137 21.8995C18.4886 21.4337 18.8525 20.9595 19.2273 20.4965C19.423 20.2566 19.5057 20.2622 19.6904 20.5102C19.9385 20.8465 20.1783 21.1883 20.4237 21.5274C20.4926 21.6211 20.5449 21.7286 20.6717 21.8113C20.8399 21.599 21.0025 21.3951 21.1651 21.1911C21.336 20.9761 21.4987 20.7556 21.6806 20.5488C21.8129 20.3972 21.9204 20.3945 22.0334 20.5488C22.3615 20.9899 22.6757 21.4392 22.9954 21.8857C23.0754 21.9987 23.0588 22.1007 22.9734 22.211C22.6426 22.6493 22.3229 23.0958 21.9866 23.5313C21.7826 23.7932 21.7109 23.7904 21.4766 23.5589C21.2478 23.3301 21.0604 23.0655 20.8702 22.8064C20.7434 22.6355 20.6194 22.4591 20.4237 22.2827H20.4264Z" fill="#333333"/>
<path d="M34.5094 24.4052C34.5039 25.37 34.3578 26.2272 34.2007 27.0845C34.1483 27.3657 34.1014 27.6468 34.0022 27.917C33.9664 28.0189 33.9223 28.1237 33.7872 28.1182C33.6742 28.1127 33.6246 28.0272 33.5887 27.939C33.5226 27.7846 33.4592 27.6303 33.404 27.4759C32.9823 26.3237 32.5798 25.1632 32.1305 24.0221C31.9266 23.5038 32.1388 23.1868 32.5357 23.0049C32.9382 22.823 33.3544 22.6769 33.7762 22.5501C34.1345 22.4426 34.3247 22.5584 34.3964 22.9305C34.4956 23.4459 34.4736 23.9752 34.5121 24.4052H34.5094Z" fill="#673468"/>
<path d="M27.4723 20.4391C26.389 20.4198 25.9838 19.8851 25.9259 18.9644C25.9011 18.573 25.948 18.1788 25.9783 17.7846C26.0031 17.4677 26.2402 17.2719 26.5572 17.2775C26.7446 17.2802 26.9072 17.3546 27.0616 17.4428C27.781 17.8618 28.3902 18.4131 28.9415 19.0306C28.9884 19.083 29.027 19.1464 29.0628 19.207C29.3495 19.7087 29.1979 20.0863 28.6356 20.2352C28.2331 20.3427 27.8224 20.4226 27.4723 20.4391Z" fill="#4AC2C4"/>
<path d="M37.0095 15.0178C36.9185 15.0178 36.8496 14.9709 36.7945 14.9048C36.6511 14.7449 36.5078 14.585 36.3727 14.4169C36.177 14.1743 35.9978 13.9207 35.7994 13.6837C35.6919 13.5541 35.6643 13.4494 35.7801 13.3088C36.155 12.8457 36.5188 12.3716 36.8937 11.9057C37.0729 11.6825 37.1749 11.6825 37.3402 11.9057C37.6462 12.3192 37.9384 12.741 38.2416 13.1544C38.3326 13.2785 38.3408 13.3805 38.2416 13.5073C37.9081 13.9428 37.5828 14.3866 37.2548 14.8249C37.1914 14.9103 37.1308 15.004 37.0067 15.015L37.0095 15.0178Z" fill="#333333"/>
<path d="M30.226 10.5105C30.2315 10.6153 30.1929 10.6704 30.1488 10.7283C29.8346 11.15 29.5286 11.5745 29.2088 11.9908C28.9663 12.3105 28.8973 12.3105 28.6272 12.0349C28.2661 11.6655 28.007 11.2162 27.668 10.833C27.5853 10.7393 27.6046 10.6346 27.6817 10.5408C28.0676 10.0557 28.448 9.56505 28.8395 9.08267C28.98 8.90901 29.0958 8.90625 29.2171 9.06613C29.5451 9.50717 29.8621 9.95647 30.1791 10.403C30.2067 10.4416 30.2177 10.4885 30.2287 10.5078L30.226 10.5105Z" fill="#333333"/>
</g>
<defs>
<clipPath id="clip0_218_8274">
<rect width="42.8468" height="32" fill="white" transform="translate(0.425781)"/>
</clipPath>
</defs>
</svg>
