<svg width="210" height="32" viewBox="0 0 210 32" fill="none" xmlns="http://www.w3.org/2000/svg">
<g clip-path="url(#clip0_218_8038)">
<path d="M19.4492 28.6229C19.4729 28.7888 19.4729 28.9904 19.4492 29.2274C19.4256 29.4643 19.3781 29.6777 19.307 29.8674C18.9751 30.1518 18.667 30.377 18.3826 30.5429C18.0981 30.7088 17.8137 30.7918 17.5292 30.7918C17.2685 30.7918 16.9959 30.6851 16.7115 30.4718C16.4507 30.2821 16.2018 29.9504 15.9648 29.4762L13.9026 24.2496H6.18703L3.94703 29.8674C3.33072 30.4126 2.71444 30.6851 2.09814 30.6851C1.31592 30.6851 0.924805 30.1874 0.924805 29.1918C0.924805 28.7415 1.00777 28.2318 1.17369 27.6629L8.81814 2.24069C9.29222 2.00366 9.77814 1.88513 10.2759 1.88513C10.7974 1.88513 11.2833 2.00366 11.7337 2.24069L19.4492 28.6229ZM13.2626 20.5162L10.4181 10.774H10.1337L7.07592 20.5162H13.2626ZM41.4997 9.24513C41.4997 10.7622 41.2391 12.1251 40.7175 13.334C40.1961 14.5429 39.3547 15.3844 38.1931 15.8585C39.3072 16.4511 40.1369 17.3162 40.682 18.454C41.2272 19.5918 41.4997 20.8482 41.4997 22.2229C41.4997 24.5221 41.1205 26.4304 40.362 27.9474C39.6036 29.4643 38.122 30.2229 35.9175 30.2229H23.1886V1.60069L34.8508 1.52958C36.3442 1.52958 37.8258 2.35921 39.2953 4.01847C40.765 5.67772 41.4997 7.41994 41.4997 9.24513ZM33.962 5.40513L26.7442 5.29847V14.4718H33.8197C35.0997 14.4718 36.1072 13.9622 36.842 12.9429C37.5769 11.8999 37.9442 10.7266 37.9442 9.42291C37.9442 8.37994 37.565 7.4555 36.8064 6.64958C36.0716 5.81994 35.1236 5.40513 33.962 5.40513ZM37.7309 22.2229C37.7309 20.9666 37.4583 19.9354 36.9131 19.1296C36.3916 18.3237 35.5739 17.9207 34.4597 17.9207H26.6731V27.0229H34.5664C35.6569 27.0229 36.4508 26.5607 36.9486 25.6362C37.4702 24.7118 37.7309 23.574 37.7309 22.2229ZM62.0503 18.4896L56.9303 27.8051C56.6459 28.3504 56.3378 28.7888 56.0059 29.1207C55.6741 29.4526 55.3067 29.7015 54.9036 29.8674C54.5244 30.0096 54.1333 30.1043 53.7303 30.1518C53.3275 30.1754 52.96 30.1993 52.6281 30.2229C52.2964 30.2704 51.8103 30.3059 51.1703 30.3296C50.5303 30.3532 49.9022 30.3651 49.2859 30.3651C48.3378 30.3651 47.5081 30.3532 46.797 30.3296C46.0859 30.3059 45.4697 30.2704 44.9481 30.2229C44.5925 30.2229 44.3081 30.0451 44.0948 29.6896C43.9053 29.334 43.8103 28.9193 43.8103 28.4451C43.8103 28.0185 43.8814 27.6629 44.0236 27.3785C44.1897 27.094 44.4267 26.9518 44.7348 26.9518H47.437V4.94291H44.4503C44.1422 4.94291 43.9052 4.82439 43.7392 4.58736C43.5733 4.35032 43.4903 4.05402 43.4903 3.69847C43.4903 3.20069 43.6208 2.73847 43.8814 2.3118C44.1422 1.88513 44.4503 1.6718 44.8059 1.6718H54.4414C54.7259 1.6718 54.9511 1.73106 55.117 1.84958C55.283 1.94439 55.5556 2.14588 55.9348 2.45402C56.3378 2.73847 56.6341 3.05847 56.8237 3.41402L61.8725 13.4762C62.3941 14.4718 62.6548 15.4081 62.6548 16.2851C62.6548 16.617 62.6075 16.9844 62.5125 17.3874C62.4178 17.7666 62.2636 18.134 62.0503 18.4896ZM58.8148 15.574L58.2103 13.654C57.6889 12.1844 56.9897 10.7148 56.1125 9.24513C55.2356 7.7755 54.3822 6.43624 53.5525 5.22736C52.8414 4.99032 52.2252 4.8718 51.7036 4.8718C51.5852 4.8718 51.3836 4.8955 51.0992 4.94291V26.9518C51.2652 26.9754 51.5141 26.9874 51.8459 26.9874C52.6044 26.9874 53.2681 26.8215 53.837 26.4896C54.6192 25.1859 55.437 23.7399 56.2903 22.1518C57.1675 20.5637 57.843 18.9754 58.317 17.3874L58.8148 15.574ZM80.322 5.08513H67.842V14.0451H73.1397C73.6613 14.0925 74.0761 14.3059 74.3842 14.6851C74.7161 15.0407 74.882 15.4437 74.882 15.894C74.882 16.2733 74.7636 16.617 74.5264 16.9251C74.3131 17.2333 73.9813 17.4348 73.5309 17.5296H67.842V26.5251H80.5708C81.045 26.6199 81.4242 26.8807 81.7086 27.3074C82.0169 27.7104 82.1709 28.1488 82.1709 28.6229C82.1709 29.0496 82.0525 29.417 81.8153 29.7251C81.602 30.0096 81.2702 30.1754 80.8197 30.2229H64.2508V1.28069H79.8597C80.405 1.28069 80.8316 1.50587 81.1397 1.95624C81.4716 2.40661 81.6375 2.93994 81.6375 3.55624C81.6375 4.00661 81.5308 4.37402 81.3175 4.65847C81.1042 4.94291 80.7725 5.08513 80.322 5.08513ZM101.672 30.2229H85.0676V2.09847C85.0676 1.79032 85.2098 1.56513 85.4942 1.42291C85.8023 1.28069 86.1698 1.18587 86.5965 1.13847C87.0231 1.06735 87.4498 1.12661 87.8764 1.31624C88.3268 1.48217 88.552 1.74291 88.552 2.09847V26.2762H101.743C102.241 26.3474 102.632 26.5962 102.916 27.0229C103.225 27.4259 103.379 27.8643 103.379 28.3385C103.379 28.8599 103.225 29.3104 102.916 29.6896C102.632 30.0451 102.217 30.2229 101.672 30.2229ZM124.18 9.0318C123.943 10.9518 123.516 12.3148 122.9 13.1207C122.307 13.9029 121.501 14.4599 120.482 14.7918H116.322L124.109 27.5207C124.227 27.9474 124.286 28.3266 124.286 28.6585C124.286 28.9429 124.251 29.1682 124.18 29.334C124.132 29.4999 124.014 29.6777 123.824 29.8674C123.658 30.0332 123.457 30.1518 123.22 30.2229C122.983 30.3177 122.734 30.3651 122.473 30.3651C122.307 30.3651 122.058 30.3415 121.726 30.294C121.489 30.0332 121.264 29.7607 121.051 29.4762L112.304 14.8629H109.531V29.2629C109.531 29.7843 109.365 30.1754 109.033 30.4362C108.725 30.7207 108.346 30.8629 107.895 30.8629C107.421 30.8629 107.006 30.7207 106.651 30.4362C106.295 30.1518 106.118 29.7607 106.118 29.2629V2.91624L106.615 2.52513H120.34C121.715 2.9755 122.698 3.76958 123.291 4.90736C123.884 6.02144 124.18 7.39624 124.18 9.0318ZM120.198 11.0585C120.506 10.3711 120.66 9.58883 120.66 8.7118C120.66 8.0481 120.553 7.46736 120.34 6.96958C120.15 6.4718 119.806 6.08069 119.309 5.79624L109.531 5.90291V11.6985H119.451L120.198 11.0585ZM144.935 28.6229C144.959 28.7888 144.959 28.9904 144.935 29.2274C144.912 29.4643 144.864 29.6777 144.793 29.8674C144.461 30.1518 144.153 30.377 143.869 30.5429C143.584 30.7088 143.3 30.7918 143.015 30.7918C142.755 30.7918 142.482 30.6851 142.198 30.4718C141.937 30.2821 141.688 29.9504 141.451 29.4762L139.389 24.2496H131.673L129.433 29.8674C128.817 30.4126 128.201 30.6851 127.584 30.6851C126.802 30.6851 126.411 30.1874 126.411 29.1918C126.411 28.7415 126.494 28.2318 126.66 27.6629L134.304 2.24069C134.778 2.00366 135.264 1.88513 135.762 1.88513C136.284 1.88513 136.769 2.00366 137.22 2.24069L144.935 28.6229ZM138.749 20.5162L135.904 10.774H135.62L132.562 20.5162H138.749ZM165.635 29.1918C165.564 29.3815 165.457 29.5593 165.315 29.7251C165.173 29.891 164.947 30.057 164.639 30.2229H148.07C147.786 30.2229 147.573 30.1043 147.43 29.8674C147.288 29.6066 147.217 29.2985 147.217 28.9429C147.217 28.5162 147.312 28.137 147.502 27.8051L160.337 5.36958H148.39C148.153 5.36958 147.964 5.29847 147.822 5.15624C147.679 5.01402 147.525 4.78883 147.359 4.48069C147.217 4.17255 147.146 3.89994 147.146 3.66291C147.146 3.40216 147.217 3.12958 147.359 2.84513C147.502 2.56069 147.655 2.34736 147.822 2.20513C148.011 2.03921 148.248 1.95624 148.533 1.95624H164.853C165.042 1.95624 165.196 2.05105 165.315 2.24069C165.433 2.40661 165.528 2.59624 165.599 2.80958C165.67 2.99921 165.706 3.20069 165.706 3.41402C165.706 3.72216 165.611 4.04216 165.422 4.37402L152.657 26.6674H164.319C164.651 26.8096 164.924 26.9399 165.137 27.0585C165.35 27.177 165.516 27.3666 165.635 27.6274C165.753 27.8882 165.813 28.1488 165.813 28.4096C165.813 28.694 165.753 28.9548 165.635 29.1918ZM184.767 5.08513H172.286V14.0451H177.584C178.105 14.0925 178.521 14.3059 178.829 14.6851C179.161 15.0407 179.327 15.4437 179.327 15.894C179.327 16.2733 179.207 16.617 178.971 16.9251C178.758 17.2333 178.425 17.4348 177.975 17.5296H172.286V26.5251H185.015C185.49 26.6199 185.869 26.8807 186.153 27.3074C186.461 27.7104 186.615 28.1488 186.615 28.6229C186.615 29.0496 186.496 29.417 186.26 29.7251C186.047 30.0096 185.714 30.1754 185.264 30.2229H168.695V1.28069H184.304C184.85 1.28069 185.277 1.50587 185.584 1.95624C185.917 2.40661 186.082 2.93994 186.082 3.55624C186.082 4.00661 185.975 4.37402 185.762 4.65847C185.549 4.94291 185.216 5.08513 184.767 5.08513ZM205.974 30.3651L193.458 20.1607L193.316 20.3029V29.2629C193.174 29.7607 192.96 30.1399 192.676 30.4007C192.416 30.6615 192.119 30.7918 191.787 30.7918C191.076 30.7918 190.461 30.3532 189.938 29.4762V2.45402C190.342 1.83772 190.911 1.52958 191.645 1.52958C192.096 1.52958 192.463 1.6718 192.747 1.95624C193.056 2.21699 193.209 2.6318 193.209 3.20069V12.5162L204.516 2.02736C204.658 1.90883 204.825 1.80216 205.014 1.70735C205.227 1.61254 205.405 1.54143 205.547 1.49402C205.714 1.44661 205.879 1.42291 206.045 1.42291C206.425 1.42291 206.791 1.58883 207.147 1.92069C207.527 2.25255 207.716 2.76216 207.716 3.44958C207.716 3.5681 207.693 3.74588 207.645 3.98291L194.454 16.1785L207.076 26.5962C207.645 27.0704 208.061 27.5326 208.32 27.9829C208.605 28.4096 208.747 28.7888 208.747 29.1207C208.747 29.5474 208.569 29.891 208.214 30.1518C207.883 30.3888 207.444 30.5074 206.898 30.5074C206.567 30.5074 206.258 30.4599 205.974 30.3651Z" fill="#1D1E22"/>
</g>
<defs>
<clipPath id="clip0_218_8038">
<rect width="209.778" height="32" fill="white" transform="translate(0.000976562)"/>
</clipPath>
</defs>
</svg>
