<svg width="76" height="28" viewBox="0 0 76 28" fill="none" xmlns="http://www.w3.org/2000/svg">
<path d="M74.1026 7.6823C73.9097 6.64516 73.7099 5.57327 73.5727 4.36588C73.5206 3.90203 73.1036 3.56848 72.6398 3.6206C72.1759 3.67272 71.8424 4.09139 71.8945 4.5535C72.0369 5.81996 72.2419 6.92312 72.4417 7.9898C72.751 9.65235 73.0446 11.2228 73.0359 13.1547C73.0254 15.6285 72.8187 18.4446 71.3716 20.5641C70.0165 22.5497 67.2299 23.507 64.6484 23.507C63.6269 23.507 62.6366 23.3576 61.7819 23.0605C60.8837 22.7495 60.1697 22.211 59.7701 21.5439C59.6381 21.325 59.5356 21.087 59.4557 20.8194C59.315 20.3469 59.2646 19.8396 59.242 19.3045C60.0238 19.9056 60.9793 20.1523 61.8792 19.9821C64.2419 19.5321 65.6768 17.2598 65.6247 14.0511C65.5743 10.957 64.0803 7.44256 61.4119 7.02562C61.2833 7.00477 60.1298 6.85363 59.0822 7.70315C58.1684 8.44496 57.6611 9.67841 57.5742 11.3705C57.5499 11.8361 57.9095 12.2339 58.3751 12.2565C58.8407 12.2808 59.2385 11.9212 59.2611 11.4556C59.3202 10.2951 59.619 9.45604 60.1263 9.03041C60.6006 8.63085 61.1391 8.69339 61.1495 8.69339C62.6158 8.9227 63.8927 11.3896 63.9361 14.0789C63.95 14.9666 63.8214 17.8939 61.563 18.323C61.1287 18.4064 60.6301 18.2605 60.2288 17.9339C59.5704 17.3988 59.1812 16.4085 59.1256 15.1334C59.1239 15.0691 59.1221 15.0031 59.1204 14.9388C59.1065 14.475 58.7174 14.1049 58.2553 14.1206C57.7914 14.131 57.4231 14.5149 57.4318 14.9805C57.4335 15.057 57.4353 15.1317 57.4387 15.2064C57.4492 15.5278 57.4596 15.8474 57.47 16.1688C57.4909 16.7821 57.51 17.3953 57.5256 18.0086C57.5308 18.1805 57.5326 18.3543 57.5343 18.528C57.5465 19.4366 57.5604 20.3764 57.8366 21.3041C57.8366 21.3041 57.8366 21.3041 57.8366 21.3059C57.9564 21.7106 58.1145 22.0737 58.3195 22.4142C58.9224 23.4218 59.956 24.2192 61.2294 24.6588C62.2579 25.0149 63.4288 25.1956 64.6362 25.1938C67.7372 25.1938 71.0693 24.0004 72.7649 21.5178C74.4691 19.0214 74.7106 15.8943 74.7228 13.1633C74.7349 11.0717 74.4274 9.42651 74.1026 7.6823Z" fill="#090129"/>
<path d="M66.7084 14.356C66.6598 14.8198 66.9968 15.235 67.4606 15.2837C67.4902 15.2871 67.5197 15.2889 67.5492 15.2889C67.9766 15.2889 68.3432 14.9657 68.3883 14.5332C69.0867 7.86558 63.6803 0.638595 63.4493 0.334575C63.1679 -0.0371978 62.638 -0.110162 62.2662 0.171273C61.8944 0.452709 61.8215 0.982572 62.1029 1.35435C62.155 1.4221 67.3373 8.35722 66.7084 14.356Z" fill="#090129"/>
<path d="M69.7606 14.2167C69.7311 14.6822 70.0837 15.0835 70.5493 15.1131C70.5667 15.1148 70.5858 15.1148 70.6032 15.1148C71.0444 15.1148 71.4162 14.7708 71.4458 14.3244C71.7619 9.33844 69.1074 2.58573 68.9945 2.30082C68.8225 1.8665 68.3308 1.65456 67.8983 1.82828C67.464 2.00027 67.252 2.49192 67.424 2.92449C67.4518 2.99051 70.0525 9.61293 69.7606 14.2167Z" fill="#090129"/>
<path d="M72.3202 27.4662C71.9641 27.1101 71.7852 26.6793 71.7852 26.1755C71.7852 25.6717 71.9641 25.2408 72.3202 24.8847C72.6764 24.5285 73.1072 24.3496 73.611 24.3496C74.1148 24.3496 74.5457 24.5285 74.9018 24.8847C75.2579 25.2408 75.4369 25.6717 75.4369 26.1755C75.4369 26.6793 75.2579 27.1101 74.9018 27.4662C74.5457 27.8224 74.1148 28.0013 73.611 28.0013C73.1072 28.0013 72.6764 27.8224 72.3202 27.4662ZM72.5165 25.0706C72.2177 25.3729 72.0683 25.7412 72.0683 26.1755C72.0683 26.6098 72.2195 26.9781 72.52 27.2821C72.8206 27.5861 73.1854 27.739 73.6128 27.739C74.0401 27.739 74.4032 27.5861 74.7055 27.2821C75.006 26.9781 75.1572 26.608 75.1572 26.1755C75.1572 25.7412 75.006 25.3729 74.7055 25.0688C74.4049 24.7648 74.0401 24.6119 73.6128 24.6119C73.1836 24.6119 72.8188 24.7648 72.5165 25.0706ZM74.0558 26.2345L74.5196 26.8599C74.5439 26.8999 74.5544 26.9399 74.5544 26.9763C74.5544 27.0337 74.5352 27.0823 74.497 27.1205C74.4588 27.1588 74.4102 27.1779 74.3528 27.1779C74.2816 27.1779 74.2225 27.1414 74.1722 27.0667L73.5467 26.1233C73.5328 26.1025 73.5259 26.0886 73.5259 26.0782C73.5259 26.0417 73.545 26.0226 73.5815 26.0226H73.6666C73.7569 26.0226 73.8316 26.0017 73.8907 25.9618C73.9498 25.9218 73.9793 25.8593 73.9793 25.7759C73.9793 25.6004 73.8768 25.5136 73.6718 25.5136H73.4495V26.9711C73.4495 27.0285 73.4286 27.0771 73.3886 27.1171C73.3487 27.157 73.3 27.1779 73.2427 27.1779C73.1854 27.1779 73.1367 27.157 73.0968 27.1171C73.0568 27.0771 73.036 27.0285 73.036 26.9711V25.3572C73.036 25.3138 73.0516 25.2773 73.0812 25.246C73.1107 25.2165 73.1489 25.2009 73.1923 25.2009H73.677C73.882 25.2009 74.0488 25.2512 74.1756 25.352C74.3042 25.4528 74.3667 25.5935 74.3667 25.7759C74.3685 26.0087 74.2642 26.1616 74.0558 26.2345Z" fill="#090129"/>
<path d="M13.8688 24.3373V21.6985C13.8688 21.3718 13.7681 21.1043 13.5648 20.8941C13.3615 20.6839 13.1079 20.5797 12.8039 20.5797C12.4999 20.5797 12.2462 20.6839 12.043 20.8941C11.8397 21.1043 11.7389 21.3718 11.7389 21.6985V24.3373C11.7389 24.4972 11.6833 24.6327 11.5704 24.7439C11.4575 24.8568 11.322 24.9124 11.1639 24.9124C11.0041 24.9124 10.8686 24.8568 10.7574 24.7439C10.6445 24.6309 10.5889 24.4954 10.5889 24.3373V20.1453C10.5889 19.9855 10.6445 19.85 10.7574 19.7388C10.8703 19.6259 11.0058 19.5703 11.1639 19.5703C11.3237 19.5703 11.4592 19.6259 11.5704 19.7388C11.6833 19.8517 11.7389 19.9873 11.7389 20.1453V20.1784C12.1229 19.7736 12.5971 19.5703 13.1618 19.5703C13.4797 19.5703 13.7785 19.6433 14.0582 19.7875C14.3361 19.9317 14.5585 20.1349 14.7253 20.3955C15.203 19.8448 15.7746 19.5703 16.4417 19.5703C16.9768 19.5703 17.4215 19.7458 17.7724 20.0967C18.1234 20.4476 18.2988 20.9132 18.2988 21.4917V24.3373C18.2988 24.4972 18.2432 24.6327 18.1303 24.7439C18.0174 24.8568 17.8819 24.9124 17.7238 24.9124C17.564 24.9124 17.4285 24.8568 17.3173 24.7439C17.2044 24.6309 17.1488 24.4954 17.1488 24.3373V21.6985C17.1488 21.3718 17.048 21.1043 16.8447 20.8941C16.6415 20.6839 16.3896 20.5797 16.0838 20.5797C15.7798 20.5797 15.5262 20.6839 15.3229 20.8941C15.1196 21.1043 15.0189 21.3718 15.0189 21.6985V24.3373C15.0189 24.4972 14.9633 24.6327 14.8504 24.7439C14.7374 24.8568 14.6019 24.9124 14.4438 24.9124C14.284 24.9124 14.1485 24.8568 14.0373 24.7439C13.9244 24.6327 13.8688 24.4972 13.8688 24.3373Z" fill="#090129"/>
<path d="M20.2965 24.1428C19.7615 23.6285 19.4922 22.9962 19.4922 22.2422C19.4922 21.49 19.7597 20.8559 20.2965 20.3417C20.8316 19.8274 21.4918 19.5703 22.2735 19.5703C23.0553 19.5703 23.7137 19.8274 24.2505 20.3417C24.7856 20.8559 25.0549 21.49 25.0549 22.2422C25.0549 22.9944 24.7874 23.6285 24.2505 24.1428C23.7155 24.657 23.0553 24.9141 22.2735 24.9141C21.4918 24.9141 20.8316 24.657 20.2965 24.1428ZM21.1113 21.0922C20.8003 21.3962 20.644 21.7801 20.644 22.2439C20.644 22.7078 20.8003 23.0917 21.1113 23.3958C21.4223 23.6998 21.8097 23.8527 22.2735 23.8527C22.7374 23.8527 23.1248 23.6998 23.4358 23.3958C23.7467 23.0917 23.9031 22.7078 23.9031 22.2439C23.9031 21.7801 23.7467 21.3962 23.4358 21.0922C23.1248 20.7881 22.7374 20.637 22.2735 20.637C21.8097 20.6353 21.4223 20.7881 21.1113 21.0922Z" fill="#090129"/>
<path d="M29.5807 24.3373V21.6985C29.5807 21.3718 29.48 21.1043 29.2767 20.8941C29.0735 20.6839 28.8198 20.5797 28.5158 20.5797C28.2118 20.5797 27.9581 20.6839 27.7549 20.8941C27.5516 21.1043 27.4508 21.3718 27.4508 21.6985V24.3373C27.4508 24.4972 27.3953 24.6327 27.2823 24.7439C27.1694 24.8568 27.0339 24.9124 26.8758 24.9124C26.716 24.9124 26.5805 24.8568 26.4693 24.7439C26.3564 24.6309 26.3008 24.4954 26.3008 24.3373V20.1453C26.3008 19.9855 26.3564 19.85 26.4693 19.7388C26.5822 19.6259 26.7177 19.5703 26.8758 19.5703C27.0356 19.5703 27.1712 19.6259 27.2823 19.7388C27.3953 19.8517 27.4508 19.9873 27.4508 20.1453V20.1784C27.8348 19.7736 28.3091 19.5703 28.8737 19.5703C29.1916 19.5703 29.4904 19.6433 29.7701 19.7875C30.0481 19.9317 30.2704 20.1349 30.4372 20.3955C30.9149 19.8448 31.4865 19.5703 32.1536 19.5703C32.6887 19.5703 33.1334 19.7458 33.4844 20.0967C33.8353 20.4476 34.0107 20.9132 34.0107 21.4917V24.3373C34.0107 24.4972 33.9552 24.6327 33.8422 24.7439C33.7293 24.8568 33.5938 24.9124 33.4357 24.9124C33.2759 24.9124 33.1404 24.8568 33.0292 24.7439C32.9163 24.6309 32.8607 24.4954 32.8607 24.3373V21.6985C32.8607 21.3718 32.7599 21.1043 32.5567 20.8941C32.3534 20.6839 32.1015 20.5797 31.7957 20.5797C31.4917 20.5797 31.2381 20.6839 31.0348 20.8941C30.8316 21.1043 30.7308 21.3718 30.7308 21.6985V24.3373C30.7308 24.4972 30.6752 24.6327 30.5623 24.7439C30.4494 24.8568 30.3139 24.9124 30.1558 24.9124C29.9959 24.9124 29.8604 24.8568 29.7492 24.7439C29.6381 24.6327 29.5807 24.4972 29.5807 24.3373Z" fill="#090129"/>
<path d="M37.0096 19.7H37.8574C38.0016 19.7 38.1267 19.7522 38.2327 19.8581C38.3369 19.9624 38.3908 20.0874 38.3908 20.2334C38.3908 20.3776 38.3386 20.5026 38.2327 20.6086C38.1284 20.7129 38.0034 20.7667 37.8574 20.7667H37.0096V24.3368C37.0096 24.4966 36.954 24.6321 36.8411 24.7433C36.7282 24.8562 36.5927 24.9118 36.4346 24.9118C36.2748 24.9118 36.1393 24.8562 36.0281 24.7433C35.9152 24.6304 35.8596 24.4949 35.8596 24.3368V20.765H35.4357C35.2915 20.765 35.1664 20.7129 35.0604 20.6069C34.9562 20.5026 34.9023 20.3776 34.9023 20.2316C34.9023 20.0874 34.9545 19.9624 35.0604 19.8564C35.1647 19.7522 35.2898 19.6983 35.4357 19.6983H35.8596V18.7098C35.8596 18.55 35.9152 18.4145 36.0281 18.3033C36.141 18.1904 36.2765 18.1348 36.4346 18.1348C36.5944 18.1348 36.7299 18.1904 36.8411 18.3033C36.954 18.4162 37.0096 18.5517 37.0096 18.7098V19.7Z" fill="#090129"/>
<path d="M43.4372 20.4181V20.1471C43.4372 19.9873 43.4928 19.8517 43.6057 19.7406C43.7187 19.6276 43.8542 19.5721 44.0123 19.5721C44.1721 19.5721 44.3076 19.6276 44.4188 19.7406C44.5317 19.8535 44.5873 19.989 44.5873 20.1471V24.3373C44.5873 24.4972 44.5317 24.6327 44.4188 24.7439C44.3058 24.8568 44.1703 24.9124 44.0123 24.9124C43.8524 24.9124 43.7169 24.8568 43.6057 24.7439C43.4928 24.6309 43.4372 24.4954 43.4372 24.3373V24.0663C42.9821 24.6309 42.3514 24.9141 41.5471 24.9141C40.8226 24.9141 40.2076 24.657 39.7004 24.1428C39.1931 23.6285 38.9395 22.9962 38.9395 22.2422C38.9395 21.49 39.1931 20.8559 39.7004 20.3417C40.2076 19.8274 40.8226 19.5703 41.5471 19.5703C42.3514 19.5703 42.9821 19.8535 43.4372 20.4181ZM42.916 23.4253C43.2426 23.0987 43.4042 22.7043 43.4042 22.2422C43.4042 21.7784 43.2409 21.3857 42.916 21.0644C42.5894 20.743 42.1986 20.5814 41.7434 20.5814C41.2882 20.5814 40.8956 20.743 40.5707 21.0644C40.2441 21.3857 40.0826 21.7801 40.0826 22.2422C40.0826 22.7061 40.2459 23.0987 40.5707 23.4201C40.8973 23.7415 41.2882 23.903 41.7434 23.903C42.2003 23.903 42.5912 23.7449 42.916 23.4253Z" fill="#090129"/>
<path d="M45.665 24.5774C45.665 24.534 45.6789 24.4871 45.7085 24.4367L47.7932 20.7659H46.4364C46.2922 20.7659 46.1671 20.7138 46.0611 20.6078C45.9569 20.5036 45.903 20.3785 45.903 20.2326C45.903 20.0884 45.9552 19.9633 46.0611 19.8573C46.1654 19.7531 46.2905 19.6992 46.4364 19.6992H49.3567C49.414 19.6992 49.4644 19.7201 49.5096 19.7652C49.553 19.8087 49.5756 19.859 49.5756 19.9181C49.5756 19.9615 49.5652 20.0015 49.5426 20.038L47.3919 23.7192H49.2924C49.4366 23.7192 49.5617 23.7713 49.6677 23.8773C49.7719 23.9816 49.8258 24.1066 49.8258 24.2526C49.8258 24.3968 49.7737 24.5218 49.6677 24.6278C49.5635 24.732 49.4384 24.7859 49.2924 24.7859H45.8822C45.7363 24.7842 45.665 24.7147 45.665 24.5774Z" fill="#090129"/>
<path d="M31.3196 12.6895C31.3144 12.6929 31.3091 12.6964 31.3057 12.7016C31.3109 12.6964 31.3144 12.6929 31.3196 12.6895Z" fill="#090129"/>
<path d="M38.1439 13.485C38.1474 13.4816 38.1509 13.4781 38.1543 13.4746C38.1404 13.485 38.1196 13.5041 38.0918 13.5285C38.0935 13.5267 38.0953 13.5267 38.097 13.525C38.1144 13.5111 38.13 13.4989 38.1439 13.485Z" fill="#090129"/>
<path d="M27.9408 13.2656C27.9338 13.2535 27.9269 13.2448 27.9199 13.2344C27.9251 13.2413 27.9286 13.25 27.9338 13.257C27.9356 13.2604 27.939 13.2622 27.9408 13.2656Z" fill="#090129"/>
<path d="M6.07213 8.73252C6.04781 8.26173 5.67603 7.8083 5.17049 7.83089C4.70317 7.85174 4.24279 8.22872 4.26885 8.73252C4.29317 9.20506 4.30533 9.67933 4.31228 10.1536C4.32966 11.222 4.31749 12.2922 4.25669 13.3606C4.22195 13.9929 4.16809 14.6253 4.08818 15.2524C3.99263 15.9248 3.86581 16.6058 3.62085 17.2416C3.54789 17.3997 3.46624 17.5508 3.36895 17.6968C3.33594 17.735 3.30293 17.7732 3.26645 17.8097C3.20217 17.8757 3.13095 17.933 3.06319 17.9938C3.05103 18.0025 3.03887 18.0112 3.02671 18.0199C2.97633 18.0529 2.92421 18.0859 2.87209 18.1154C2.80955 18.1519 2.74701 18.1832 2.68273 18.2145C2.51595 18.277 2.34397 18.3239 2.1685 18.3552C1.9774 18.3726 1.78457 18.3708 1.59173 18.3517C1.37457 18.3309 1.10182 18.4681 0.954157 18.6158C0.797803 18.7721 0.67967 19.0292 0.690093 19.2533C0.700517 19.4861 0.776956 19.7276 0.954157 19.8909C1.14004 20.0612 1.34157 20.1307 1.59173 20.155C2.97807 20.294 4.47558 19.5608 5.11142 18.2979C5.50926 17.5074 5.69514 16.6318 5.82196 15.7615C6.09819 13.8626 6.14683 11.9378 6.11209 10.0216C6.10514 9.59247 6.09471 9.16163 6.07213 8.73252Z" fill="#090129"/>
<path d="M53.373 10.1798C53.2566 9.37025 52.831 8.65103 52.157 8.18544C51.4916 7.72681 50.6525 7.68685 49.8811 7.80498C49.1098 7.92485 48.3489 8.28794 47.7287 8.75526C47.0911 9.23475 46.556 9.79588 46.0522 10.4109C45.5866 10.979 45.1436 11.5661 44.6294 12.0925C44.5026 12.2228 44.3723 12.3479 44.2385 12.4678C44.1708 12.5286 44.1013 12.5877 44.0318 12.645C44.0144 12.6589 43.9988 12.6728 43.9814 12.6849C44.0109 12.6624 44.037 12.6415 44.0318 12.6467C44.0162 12.6658 43.9901 12.6797 43.9675 12.6954C43.9553 12.704 43.9449 12.7145 43.9328 12.7232C43.8945 12.7544 43.9275 12.7266 43.9675 12.6954C43.9623 12.6988 43.9571 12.7023 43.9536 12.704C43.7486 12.8534 43.5297 12.982 43.3039 13.0967C43.2101 13.1436 43.1145 13.187 43.019 13.2287C42.6368 13.3816 42.2407 13.4962 41.8359 13.5605C41.6257 13.5814 41.4137 13.5848 41.2018 13.564C41.0975 13.5431 40.9968 13.5153 40.896 13.4806C40.8456 13.4563 40.797 13.4285 40.7501 13.3989C40.7379 13.3903 40.7258 13.3833 40.7136 13.3746C40.6928 13.3538 40.6737 13.3347 40.6702 13.3312C40.6476 13.3086 40.625 13.2843 40.6042 13.26C40.6163 13.2773 40.6285 13.2947 40.6424 13.319C40.6285 13.2965 40.6129 13.2756 40.5972 13.2548C40.5972 13.2548 40.5972 13.253 40.5955 13.253C40.5868 13.2426 40.5764 13.2322 40.5677 13.2218C40.5277 13.1748 40.4999 13.1106 40.5833 13.2304C40.5451 13.1696 40.5104 13.1054 40.4791 13.0411C40.4773 13.0376 40.4773 13.0341 40.4756 13.0307C40.4756 13.0307 40.4756 13.0307 40.4756 13.0289C40.4982 12.9612 40.5225 12.8934 40.5416 12.8239C40.7831 11.9727 40.8422 11.0502 40.7171 10.1763C40.6007 9.36678 40.1751 8.64755 39.501 8.18197C38.8356 7.72333 37.9965 7.68338 37.2252 7.80151C36.4538 7.92138 35.6929 8.28447 35.0727 8.75179C34.4352 9.23127 33.9001 9.79241 33.3963 10.4074C32.9307 10.9755 32.4877 11.5627 31.9735 12.0891C31.8466 12.2194 31.7163 12.3444 31.5826 12.4643C31.5148 12.5251 31.4453 12.5842 31.3758 12.6415C31.3602 12.6554 31.3428 12.6676 31.3255 12.6815C31.355 12.6589 31.381 12.638 31.3758 12.6432C31.3602 12.6624 31.3341 12.6763 31.3116 12.6919C31.2994 12.7006 31.289 12.711 31.2768 12.7197C31.2386 12.751 31.2716 12.7232 31.3116 12.6919C31.3063 12.6954 31.3011 12.6988 31.2977 12.7006C31.0927 12.85 30.8738 12.9785 30.6479 13.0932C30.5541 13.1401 30.4586 13.1835 30.363 13.2252C29.9808 13.3781 29.5847 13.4928 29.1799 13.557C28.9697 13.5779 28.7578 13.5814 28.5458 13.5605C28.4416 13.5397 28.3408 13.5119 28.2401 13.4771C28.1897 13.4528 28.1411 13.425 28.0942 13.3955C28.082 13.3868 28.0698 13.3798 28.0577 13.3712C28.0368 13.3503 28.0177 13.3312 28.0142 13.3277C27.9917 13.3051 27.9691 13.2808 27.9482 13.2565C27.9604 13.2739 27.9725 13.2912 27.9864 13.3156C27.9725 13.293 27.9569 13.2721 27.9413 13.2513C27.9413 13.2513 27.9413 13.2495 27.9395 13.2495C27.9308 13.2391 27.9204 13.2287 27.9117 13.2183C27.8718 13.1714 27.844 13.1071 27.9274 13.227C27.8961 13.1783 27.8666 13.1279 27.8405 13.0758C27.8023 12.9698 27.7728 12.8604 27.7502 12.7492C27.7415 12.6016 27.7467 12.4556 27.7606 12.308C27.8145 11.9709 27.8996 11.6408 27.9604 11.3056C28.0542 10.7931 28.082 10.3257 27.9986 9.80978C27.9847 9.71944 27.9378 9.62737 27.8753 9.54224C27.8214 9.45885 27.7519 9.38762 27.6668 9.32682C27.639 9.30597 27.6112 9.28686 27.5851 9.27123C27.3923 9.15831 27.1074 9.10966 26.8902 9.18089C26.8624 9.18958 26.8364 9.20347 26.8086 9.2139C26.6192 9.27818 26.4507 9.40152 26.3517 9.5961C26.0146 10.251 25.6672 10.9025 25.2676 11.521C25.1634 11.6825 25.0557 11.8424 24.9445 11.9987C24.8924 12.0717 24.8403 12.1412 24.7864 12.2124C24.7569 12.2489 24.7273 12.2854 24.6978 12.3219C24.4667 12.6015 24.2166 12.8691 23.9386 13.1036C23.9126 13.1262 23.8813 13.1488 23.8535 13.1714C23.7788 13.2252 23.7024 13.2773 23.6242 13.3242C23.5373 13.3764 23.447 13.425 23.3566 13.4684C23.0022 13.5987 22.6218 13.6665 22.2483 13.7203C21.3293 13.8402 20.4016 13.8871 19.4756 13.9149C18.3968 13.9479 17.3162 13.9479 16.2373 13.934C14.5418 13.9114 12.8497 13.8246 11.1541 13.7551C10.9926 13.7481 10.8275 13.7481 10.6642 13.7395V13.7377H10.659C10.6503 13.7012 10.6434 13.6648 10.6364 13.6283C10.6104 13.4076 10.593 13.187 10.5826 12.9646C10.5721 12.7127 10.5704 12.4608 10.5721 12.2072C10.5739 11.9553 10.5791 11.7034 10.5843 11.4515C10.586 11.3837 10.586 11.316 10.5878 11.2482C10.6104 9.57351 10.6486 7.8988 10.6677 6.22408C10.6851 4.78737 10.692 3.35066 10.6937 1.91221C10.6937 1.44141 10.2785 0.987991 9.7921 1.01058C9.30393 1.03316 8.89046 1.40667 8.89046 1.91221C8.89046 3.85446 8.87483 5.79672 8.84356 7.74071C8.82445 8.97763 8.79492 10.2146 8.78102 11.4515C8.77407 12.1342 8.7567 12.8222 8.81924 13.5032C8.86962 14.0591 8.95648 14.589 9.32652 15.0285C9.62706 15.3846 10.0753 15.4906 10.5165 15.5306C10.9404 15.5688 11.373 15.5688 11.7986 15.5896C13.0929 15.6556 14.3889 15.7008 15.6849 15.7251C17.1824 15.7529 18.6817 15.7564 20.1775 15.6887C20.8185 15.6591 21.4578 15.6174 22.0954 15.541C22.6409 15.475 23.2003 15.4072 23.7267 15.2422C24.4737 15.0059 25.1165 14.5247 25.6498 13.9601C25.7992 13.8037 25.9399 13.6387 26.0755 13.4719C26.1988 13.8732 26.4055 14.2467 26.6974 14.5594C27.467 15.3794 28.6379 15.4628 29.682 15.2943C30.1024 15.2265 30.5124 15.1015 30.905 14.9399C31.3324 14.7644 31.7528 14.5716 32.1333 14.3093C33.061 13.6682 33.7611 12.8065 34.4629 11.9362C34.833 11.4775 35.2082 11.0206 35.6373 10.6141C35.7468 10.5116 35.858 10.4109 35.9744 10.3153C35.99 10.3032 36.0056 10.291 36.0195 10.2788C36.0734 10.2389 36.129 10.1989 36.1846 10.1607C36.4069 10.0096 36.6432 9.87753 36.8882 9.76461C37.1401 9.66559 37.3989 9.59088 37.6665 9.54572C37.8054 9.53356 37.9462 9.53182 38.0851 9.5405C38.1981 9.56135 38.3092 9.59088 38.417 9.63084C38.4673 9.6569 38.516 9.6847 38.5629 9.71597C38.5942 9.74376 38.6272 9.77156 38.6567 9.80283C38.6793 9.82541 38.6984 9.84974 38.7192 9.87406C38.7244 9.88101 38.7279 9.88796 38.7331 9.8949C38.7748 9.95918 38.8113 10.0269 38.8443 10.0964C38.893 10.2319 38.9294 10.3709 38.9555 10.5134C38.9972 10.9129 38.9816 11.3195 38.9364 11.7173C38.8825 12.063 38.7957 12.4035 38.6706 12.7318C38.6167 12.85 38.5577 12.9646 38.4899 13.0758C38.4552 13.1314 38.417 13.1853 38.3805 13.2409C38.3596 13.2652 38.337 13.2912 38.3162 13.3156C38.2675 13.3694 38.2154 13.4198 38.1633 13.4684C38.2206 13.4215 38.1633 13.4806 38.1164 13.5119C38.1129 13.5136 38.1095 13.5153 38.106 13.5188C38.0886 13.5327 38.0712 13.5466 38.0556 13.5623C38.073 13.5466 38.0869 13.5345 38.1008 13.5223C38.0226 13.5761 37.9392 13.6213 37.8558 13.663C37.7377 13.7047 37.6178 13.7377 37.4945 13.7603C37.3937 13.7672 37.2929 13.7672 37.1922 13.7603C37.0584 13.736 36.9281 13.7012 36.8013 13.6543C36.7388 13.6231 36.6762 13.5883 36.6172 13.5501C36.6067 13.5431 36.5911 13.5327 36.5737 13.5206C36.5459 13.4962 36.5129 13.4684 36.5008 13.4563C36.4608 13.4181 36.4226 13.3781 36.3861 13.3381C36.3844 13.3364 36.3826 13.3347 36.3809 13.3329C36.3149 13.2287 36.2541 13.1262 36.2037 13.0133C36.1168 12.8204 35.8597 12.6537 35.6651 12.5998C35.4497 12.5407 35.1613 12.5668 34.9702 12.6902C34.7774 12.8135 34.6089 12.9994 34.5568 13.2287C34.4994 13.4789 34.5429 13.6908 34.6471 13.9236C35.3646 15.5201 37.5726 16.0396 38.9955 15.0893C39.1744 14.9694 39.3377 14.8322 39.4871 14.6845C39.5062 14.7002 39.5236 14.7193 39.5427 14.7349C39.9041 15.0233 40.3158 15.237 40.7762 15.3151C41.6413 15.4628 42.5273 15.3343 43.3473 15.032C44.1933 14.7193 44.93 14.2849 45.5953 13.6734C46.2815 13.0428 46.8322 12.2888 47.4229 11.5748C47.7495 11.1805 48.0918 10.7965 48.4774 10.456C48.5226 10.4161 48.5695 10.3761 48.6164 10.3362C48.6303 10.324 48.6442 10.3118 48.6598 10.3014C48.7537 10.2319 48.8492 10.1624 48.9482 10.0999C49.148 9.97134 49.3582 9.8619 49.5736 9.76287C49.8169 9.66906 50.0688 9.59783 50.3259 9.55266C50.4649 9.5405 50.6056 9.53877 50.7446 9.54745C50.8575 9.5683 50.9687 9.59783 51.0764 9.63779C51.1268 9.66385 51.1754 9.69164 51.2223 9.72291C51.2536 9.75071 51.2866 9.77851 51.3161 9.80978C51.3387 9.83236 51.3578 9.85668 51.3787 9.88101C51.3839 9.88795 51.3873 9.8949 51.3926 9.90185C51.4343 9.96613 51.4707 10.0339 51.5037 10.1034C51.5524 10.2389 51.5889 10.3779 51.6149 10.5186C51.6566 10.9181 51.641 11.3247 51.5958 11.7225C51.542 12.0682 51.4551 12.4087 51.33 12.7371C51.2762 12.8552 51.2171 12.9698 51.1493 13.081C51.1146 13.1366 51.0764 13.1905 51.0399 13.2461C51.019 13.2704 50.9965 13.2965 50.9756 13.3208C50.927 13.3746 50.8749 13.425 50.8227 13.4737C50.8801 13.4267 50.8227 13.4858 50.7758 13.5171C50.7724 13.5188 50.7689 13.5206 50.7654 13.524C50.748 13.5379 50.7307 13.5518 50.715 13.5675C50.7324 13.5518 50.7463 13.5397 50.7602 13.5275C50.682 13.5814 50.5986 13.6265 50.5152 13.6682C50.3971 13.7099 50.2772 13.7429 50.1539 13.7655C50.0531 13.7725 49.9524 13.7725 49.8516 13.7655C49.7178 13.7412 49.5875 13.7064 49.4607 13.6595C49.3982 13.6283 49.3356 13.5935 49.2766 13.5553C49.2662 13.5484 49.2505 13.5379 49.2331 13.5258C49.2053 13.5014 49.1723 13.4737 49.1602 13.4615C49.1202 13.4233 49.082 13.3833 49.0455 13.3434C49.0438 13.3416 49.042 13.3399 49.0403 13.3381C48.9743 13.2339 48.9135 13.1314 48.8631 13.0185C48.7762 12.8257 48.5191 12.6589 48.3246 12.605C48.1091 12.546 47.8208 12.572 47.6297 12.6954C47.4368 12.8187 47.2683 13.0046 47.2162 13.2339C47.1589 13.4841 47.2023 13.696 47.3065 13.9288C48.024 15.5254 50.2321 16.0448 51.6549 15.0945C52.4471 14.5646 52.9474 13.7325 53.2028 12.8274C53.439 11.9779 53.4981 11.0554 53.373 10.1798ZM28.0664 13.3955C28.0994 13.4198 28.1324 13.4424 28.1289 13.4441C28.1237 13.4476 28.0959 13.4233 28.0664 13.3955ZM40.7275 13.3955C40.7605 13.4198 40.7935 13.4424 40.7901 13.4441C40.7848 13.4476 40.7553 13.4233 40.7275 13.3955Z" fill="#090129"/>
<path d="M50.8041 13.485C50.8075 13.4816 50.811 13.4781 50.8145 13.4746C50.8006 13.485 50.7797 13.5041 50.752 13.5285C50.7537 13.5267 50.7554 13.5267 50.7572 13.525C50.7728 13.5111 50.7884 13.4989 50.8041 13.485Z" fill="#090129"/>
<path d="M40.6009 13.2656C40.594 13.2535 40.587 13.2431 40.5801 13.2344C40.5853 13.2413 40.5888 13.25 40.594 13.257C40.5975 13.2604 40.5992 13.2622 40.6009 13.2656Z" fill="#090129"/>
<path d="M43.9787 12.6895C43.9735 12.6929 43.9701 12.6964 43.9648 12.6999C43.9701 12.6964 43.9753 12.6929 43.9787 12.6895Z" fill="#090129"/>
<path d="M4.99153 6.16859C5.70633 6.16859 6.28578 5.58913 6.28578 4.87433C6.28578 4.15954 5.70633 3.58008 4.99153 3.58008C4.27673 3.58008 3.69727 4.15954 3.69727 4.87433C3.69727 5.58913 4.27673 6.16859 4.99153 6.16859Z" fill="#090129"/>
<path d="M16.2003 7.26242C16.3115 7.26242 16.4175 7.24679 16.5182 7.22073L16.5234 7.23636C16.5234 7.23636 18.9191 7.0748 20.3124 7.26242V7.25895C20.3402 7.26068 20.3662 7.26242 20.394 7.26242C20.9621 7.26242 21.4208 6.80205 21.4208 6.2357C21.4208 5.66762 20.9604 5.20898 20.394 5.20898C20.3072 5.20898 20.2221 5.22114 20.1421 5.24199C19.6557 5.26979 17.5658 5.37576 16.2854 5.20898V5.21246C16.2576 5.21072 16.2281 5.20898 16.2003 5.20898C15.5766 5.20898 15.0693 5.66936 15.0693 6.2357C15.0693 6.80378 15.5766 7.26242 16.2003 7.26242Z" fill="#090129"/>
</svg>
