<svg width="96" height="28" viewBox="0 0 96 28" fill="none" xmlns="http://www.w3.org/2000/svg">
<g clip-path="url(#clip0_218_8299)">
<path d="M93.6023 8.65995C93.4065 8.02735 93.0149 6.80734 92.9094 6.65672V6.68684C91.9907 4.18657 89.6109 -3.51004 87.0805 1.89717V1.86705C86.9901 2.0026 86.8696 2.39421 86.8245 2.54483L86.8546 2.48458C86.8546 2.55989 86.7491 2.71051 86.719 2.86113L86.7491 2.83101C85.6647 6.03918 83.9326 10.2113 83.541 13.1183C83.541 13.1183 82.9385 14.7299 83.315 15.6336C83.6916 16.5373 85.2279 16.1306 85.2279 16.1306C85.2279 16.1306 85.9207 12.3953 86.8847 11.9886C87.8336 11.5819 89.1741 10.3921 90.6351 11.7627C92.0961 13.1183 92.4576 14.4738 93.2107 14.7751C93.9638 15.0763 94.7169 15.4077 95.3344 14.1274C95.9519 12.8471 93.6174 8.65995 93.6174 8.65995H93.6023ZM90.5447 8.76538C90.2736 9.02143 89.9423 8.73526 89.8218 8.49427V8.52439C89.8368 8.52439 89.7465 8.35871 89.7465 8.35871H89.7615C89.626 8.17797 89.4904 7.9671 89.3548 7.75624H89.3699C89.2645 7.56043 89.0235 7.59056 88.9181 7.75624C88.8729 7.81648 88.8428 7.95204 88.7524 7.9671H88.7976C88.6469 8.11772 88.5716 8.37377 88.421 8.53945H88.4361C88.2403 8.97625 87.4119 8.87081 87.7583 8.34365C87.8185 8.19303 88.0595 7.9671 88.1499 7.78636C88.7976 7.07845 88.5415 6.32536 88.0143 5.63251C87.3516 4.87942 88.18 4.27695 88.5867 5.31621C89.2344 6.70191 89.4904 5.3614 90.0477 4.78905C91.6141 4.7288 88.6771 6.55129 90.123 7.78636C90.1983 7.90685 90.3188 8.10266 90.4092 8.20809C90.5598 8.32859 90.6953 8.58464 90.5297 8.75032L90.5447 8.76538ZM4.36077 0.210244C3.26125 0.225305 1.72494 -0.000622451 1.12247 1.20433L1.18271 1.14408C0.429622 3.47867 1.06222 6.26511 0.866416 8.75032C1.15259 10.7837 0.444684 12.9676 1.0321 14.8353L0.971849 14.8052C1.40864 15.4077 2.65878 15.3474 3.08051 14.7449L3.05039 14.7751C2.70396 9.44316 10.8524 10.4975 11.0482 5.07522L11.0181 5.13547C11.0181 4.71374 11.0181 4.11127 11.0482 3.71966C10.9729 0.225305 6.95141 0.210244 4.36077 0.210244ZM8.60821 3.74978C8.0208 3.41842 7.62919 2.80088 7.26771 3.25274C7.1924 3.28286 7.0719 3.37323 7.13215 3.44854C7.11709 3.50879 6.8761 3.7799 6.98153 3.84015C6.83091 4.02089 6.40918 3.85521 6.22844 3.9004C6.06276 3.97571 5.85189 3.88534 5.71633 3.76484C5.59584 3.76484 5.46028 3.76484 5.46028 3.93052C5.33979 3.9004 5.15905 4.27695 5.30966 4.32213C5.27954 5.3614 7.08696 4.51794 6.62005 5.15053C6.62005 5.3614 6.51461 5.46683 6.42424 5.60239C6.42424 6.03918 6.96647 5.60239 7.13215 5.82832C7.08696 5.91869 6.86104 6.00906 6.80079 6.12955C6.95141 6.25005 7.04178 6.17474 7.14721 6.43079C7.1924 6.58141 6.96647 6.74709 7.02672 6.88265C7.16227 6.88265 7.1924 6.92783 7.14721 7.04833C7.37314 7.21401 7.67438 7.1387 7.64425 7.43994C7.7045 7.455 7.77981 7.39475 7.825 7.36463C7.91537 7.63574 7.87018 8.16291 7.99068 8.37377C7.96055 8.4792 7.87018 8.55451 7.74969 8.53945C7.29783 8.72019 7.04178 8.76538 6.74054 9.02143C6.07782 8.94612 6.42424 9.20217 6.06276 9.20217C5.98745 9.17205 5.76152 9.15699 5.80671 9.02143C5.68621 9.03649 5.49041 9.02143 5.55065 8.85575C5.58078 8.78044 5.70127 8.78044 5.67115 8.69007C5.67115 8.65995 5.44522 8.78044 5.36991 8.73526C5.21929 8.55451 4.87287 8.58464 4.67707 8.49427C4.67707 8.38883 4.84275 8.31352 4.79756 8.23822C4.55657 8.31352 4.67707 7.86167 4.2704 8.04241C4.70719 8.94612 3.6378 7.86167 3.50224 7.7713C3.66792 7.19895 3.33656 6.88265 2.8847 6.77721C2.67384 6.67178 2.88471 6.47598 2.4931 6.55129C2.43285 6.38561 2.64372 6.20486 2.46297 6.06931C2.50816 6.02412 2.59853 5.97894 2.67384 5.97894C2.70396 5.84338 2.56841 5.78313 2.46297 5.82832C1.81531 5.43671 2.97508 5.78313 2.8094 5.37646C2.74915 5.31621 2.61359 5.18066 2.50816 5.21078C2.34248 5.06016 2.56841 4.87942 2.38766 4.66855C1.95087 4.54806 2.8094 3.71966 2.64372 3.28286C3.02026 2.87619 1.83037 3.2678 2.25211 2.9515C2.14667 2.74064 2.8094 2.57496 2.86964 2.48458C3.0052 2.45446 3.29138 2.51471 3.36668 2.45446C3.30644 2.30384 3.54743 2.27372 3.62274 2.21347C3.69805 2.33397 3.81854 2.52977 3.98422 2.46952C4.25533 2.34903 4.33064 2.68039 4.55657 2.55989C4.5867 2.40928 4.45114 2.09298 4.2704 2.15322C4.19509 2.03273 4.24027 1.94236 4.05953 1.89717C3.8336 1.82186 3.5173 2.21347 3.47212 1.8068C3.60767 1.41519 4.21015 1.1742 4.55657 0.99346C5.20423 1.03865 6.10794 1.24951 6.68029 1.43025C7.04178 1.58087 7.62919 2.15322 7.64425 2.40928C8.0208 2.39421 8.35216 2.92138 8.42747 3.22262C8.30697 3.22262 8.12623 2.99669 8.17142 3.22262C8.20154 3.22262 8.60821 3.73472 8.60821 3.56904C8.27685 3.20755 8.66846 3.3883 8.86426 3.40336C9.06007 3.46361 9.01488 3.96065 9.06007 4.0962C8.93957 4.42756 8.26179 3.7799 8.59315 3.7046L8.60821 3.74978ZM4.33064 0.210244C4.33064 0.210244 4.33064 0.210244 4.34571 0.210244H4.31558H4.33064ZM23.9713 13.1634C23.0676 11.356 22.4952 8.4039 21.7271 6.64166V6.67178C20.7933 4.15645 18.4285 -3.5251 15.8982 1.89717V1.86705C15.8078 2.0026 15.6873 2.39421 15.6421 2.54483L15.6722 2.48458C15.2204 3.62929 14.7535 4.95473 14.4221 6.12955L14.4522 6.06931C13.6841 8.05747 12.9912 10.2414 12.464 12.3049C11.9971 13.3592 11.3495 15.1516 13.2021 15.0311C16.0186 13.9768 13.6389 9.02143 19.031 11.3259H19.0009L20.0552 11.6121H20.0251C20.4619 11.8531 21.0192 12.3802 21.1698 12.9827L21.1397 12.9225C21.3807 14.4437 22.5706 15.9348 23.9864 14.4889V14.519C24.2575 14.037 24.1521 13.5249 23.9864 13.1183V13.1484L23.9713 13.1634ZM15.5216 2.86113L15.5517 2.83101C15.5517 2.84607 15.5517 2.86113 15.5216 2.86113ZM17.9918 8.94612H18.052C16.5609 8.5997 16.4103 7.27426 16.9675 6.03918C17.7959 2.66533 19.1967 6.28017 19.4678 7.68093C19.4377 7.78636 19.5732 7.89179 19.5883 7.98216C19.5883 8.05747 19.7239 8.29846 19.7389 8.32859V8.23822C20.0854 9.47329 18.7147 9.15699 18.0068 8.94612H17.9918ZM38.2951 0.556666C35.7798 -0.527788 36.2618 2.86113 36.2015 4.35226C36.3672 5.46683 35.8401 8.11772 34.3188 6.56635L34.3791 6.59647C34.0025 6.14462 33.2193 5.5572 32.7825 5.18066L32.8126 5.2409C32.7373 5.1656 32.6771 5.09029 32.6018 5.01498C31.5474 3.88534 30.3877 2.52977 29.4538 1.30976V1.33988C28.9718 0.481357 27.4054 0.285553 26.9234 1.27964L26.9536 1.24951C26.5318 4.05102 26.6975 7.16882 26.6975 9.95527C26.9385 11.597 26.1252 13.4647 26.8933 14.9407C27.4807 15.4528 29.0923 15.2872 29.0923 14.1726C29.3635 11.6271 27.8874 3.68953 32.4511 8.2834V8.25328C32.5867 8.43402 32.8578 8.62982 33.0536 8.7955H33.0235C33.0235 8.78044 33.6712 9.36786 33.626 9.24736C34.9213 10.5427 36.2919 12.5911 36.1564 14.5793C37.5119 16.5674 39.3344 14.3081 38.6265 12.4857C38.8072 9.97033 38.506 7.3345 38.747 4.83423C38.5512 3.49373 39.3645 1.59593 38.3102 0.571728L38.2951 0.556666ZM36.2166 4.36732V4.35226V4.38238V4.36732ZM52.1972 6.49104C50.7513 6.29523 47.6034 6.05425 48.6728 8.34365C48.9137 8.84069 49.3054 8.72019 49.8325 8.72019C53.2968 8.93106 50.435 13.4044 48.1607 13.0731C44.9675 12.9827 43.4011 9.66909 43.9735 6.80734V6.83746C44.1843 6.20486 44.2446 5.63251 44.5759 5.10535V5.13547C45.1483 4.06608 46.3382 3.13224 47.5582 2.92138H47.4678C48.2661 2.81595 49.1849 2.84607 49.9229 3.23768L49.7873 3.17743C49.8777 3.31299 49.7873 3.28286 50.0735 3.34311H50.0434C50.7814 3.5841 51.0224 4.51794 51.7454 4.81917H51.7153C52.3027 5.13547 52.8298 5.01498 53.3118 4.44263V4.47275C53.5829 4.08114 53.5227 3.43348 53.2817 3.05694L53.3419 3.08706C53.3118 3.072 53.1461 2.86113 53.2214 2.9515C53.0859 2.81595 52.9955 2.55989 52.7997 2.46952L52.8298 2.52977C52.7545 2.37915 52.4232 2.21347 52.3177 2.07791C52.0767 1.67124 51.2634 1.08383 50.7212 0.888027H50.7513C50.3898 0.722347 49.9831 0.662099 49.6066 0.511481H49.6367C48.8083 0.134934 47.4979 0.42111 46.6243 0.601852H46.6545C45.4495 0.963337 43.9283 1.91223 43.0999 2.84607L43.1601 2.81595C41.8648 4.533 41.1268 6.91277 41.5636 9.08168V9.05156C41.6841 10.7385 42.2865 12.576 43.6421 13.4647C45.5851 15.5131 49.2451 15.9951 51.5797 14.1726L51.5496 14.2027C53.9143 12.8471 55.5108 7.37969 52.1972 6.52116V6.49104ZM68.0875 13.1634C67.1838 11.356 66.6114 8.4039 65.8433 6.64166V6.67178C64.9094 4.15645 62.5447 -3.5251 60.0143 1.89717V1.86705C59.924 2.0026 59.8035 2.39421 59.7583 2.54483L59.7884 2.48458C59.3366 3.62929 58.8696 4.95473 58.5383 6.12955L58.5684 6.06931C57.8003 8.05747 57.1074 10.2414 56.5802 12.3049C56.1133 13.3592 55.4657 15.1516 57.3183 15.0311C60.1348 13.9768 57.7551 9.02143 63.1472 11.3259H63.1171L64.1714 11.6121H64.1413C64.5781 11.8531 65.1354 12.3802 65.286 12.9827L65.2559 12.9225C65.4969 14.4437 66.6867 15.9348 68.1026 14.4889V14.519C68.3737 14.037 68.2682 13.5249 68.1026 13.1183V13.1484L68.0875 13.1634ZM59.6227 2.86113L59.6529 2.83101C59.6529 2.84607 59.6529 2.86113 59.6227 2.86113ZM62.1079 8.94612H62.1682C60.6771 8.5997 60.5264 7.27426 61.0837 6.03918C61.9121 2.66533 63.3129 6.28017 63.584 7.68093C63.5539 7.78636 63.6894 7.89179 63.7045 7.98216C63.7045 8.05747 63.8401 8.29846 63.8551 8.32859V8.23822C64.2015 9.47329 62.8309 9.15699 62.123 8.94612H62.1079Z" fill="#5ECFCA"/>
<path d="M80.9197 13.1192C80.7691 12.8481 80.5884 12.6824 80.3926 12.592C80.1968 12.5016 80.016 12.4565 79.8654 12.4565H79.037C78.8412 12.4565 78.6303 12.4565 78.4044 12.4565C78.1634 12.4565 77.9375 12.4715 77.7266 12.4866C77.5157 12.4866 77.3199 12.4866 77.1392 12.4866H75.633C75.4975 12.4866 75.2414 12.4866 74.8347 12.4565C74.6239 12.4565 74.3979 12.4565 74.172 12.4113C73.931 12.3811 73.7202 12.3058 73.5244 12.1853C73.3285 12.0648 73.1629 11.869 73.0424 11.6281C72.9219 11.3871 72.8466 10.875 72.8767 10.4231C72.8315 8.34457 74.91 8.58556 76.3108 8.41988C77.576 8.38976 77.6513 5.94973 76.2506 6.02504C72.3646 6.91369 71.4609 2.66625 74.8046 2.54575C76.3108 2.47044 77.5459 2.54575 79.0219 2.57588C80.995 3.16329 81.8385 0.376846 79.6696 0.150918C77.3049 0.105732 74.6389 0.0605469 72.2742 0.0605469C69.8643 0.391908 70.7379 3.4344 70.4819 5.10627C70.4517 6.94382 70.512 8.84161 70.4819 10.7093H70.4668C70.4668 10.8147 70.4668 11.1762 70.4668 11.4774C70.4668 11.4774 70.4668 11.5076 70.4668 11.5226C70.4668 11.6883 70.4668 11.8239 70.4668 11.8841C70.4668 12.0648 70.512 12.2757 70.512 12.4263C70.512 12.577 70.512 12.7276 70.4819 12.833C70.4819 13.1192 70.527 13.3903 70.6325 13.6463C70.7379 13.9024 70.994 14.1283 71.1596 14.3091C71.3253 14.5049 71.5211 14.6404 71.732 14.7459C71.9429 14.8513 72.1387 14.8965 72.3345 14.8965H75.5577C75.7686 14.8965 75.9945 14.8965 76.1903 14.8664C76.4614 14.8513 76.7627 14.8362 77.1091 14.8362H79.3382C79.3834 14.8362 79.4135 14.8362 79.4587 14.8362C79.5039 14.8362 79.534 14.8362 79.5792 14.8362H79.7148C79.7901 14.8212 79.8654 14.8061 79.9407 14.791C80.016 14.791 80.0763 14.7609 80.1365 14.7459C80.2118 14.7308 80.2721 14.7007 80.3323 14.6555C80.5582 14.5651 80.754 14.3543 80.9197 14.0229C81.0854 13.7066 81.0854 13.3752 80.9197 13.0589V13.1192Z" fill="#5ECFCA"/>
<path d="M22.3751 26.3581C22.6312 26.4936 22.586 26.825 22.4354 27.0057C20.9894 29.1144 17.9921 27.563 17.3746 25.5146C17.2993 25.4242 17.2541 25.2586 17.2239 25.1531C17.1336 24.9272 16.9528 24.7615 16.8474 24.7163L16.4859 24.626C14.7839 23.8427 15.4617 25.5146 14.558 25.846C13.7898 25.846 14.3321 25.0929 14.3773 24.7314C14.4977 24.3548 14.7689 23.3608 14.9948 22.8938H14.9797C15.1605 22.3968 15.2207 22.0956 15.4768 21.5082C16.275 19.776 17.0583 22.1257 17.4047 23.0897C17.8264 24.1892 18.0373 25.3339 18.7151 26.3581C19.3326 27.1413 20.643 27.5931 21.5015 26.9304C21.8028 26.7196 21.9082 26.1171 22.3751 26.343V26.3581ZM16.7721 23.7072V23.6168C16.757 23.6168 16.757 23.6469 16.757 23.6469C16.757 23.6469 16.6968 23.5415 16.7118 23.5264C16.7118 23.5114 16.6667 23.4963 16.6817 23.4361C16.1997 21.0412 15.1755 23.6921 16.2148 23.8578H16.1997C16.3805 23.903 16.8323 24.0687 16.7872 23.7222L16.7721 23.7072Z" fill="#5ECFCA"/>
<path d="M22.6614 23.0438C22.7216 23.7367 22.7819 24.6856 22.2698 25.1826C22.089 25.4085 21.9685 25.4989 21.6372 25.6495H21.6673C21.6221 25.6646 21.5468 25.6947 21.5016 25.7248H21.5468C21.3811 25.8453 21.1401 25.8905 20.9293 25.9357H20.9443C18.5796 26.0411 18.8959 25.9206 18.9863 23.7367C19.1972 22.6823 18.4591 20.5887 20.3117 21.1008C20.5678 21.131 20.8238 21.2515 21.095 21.3117C21.2004 21.372 21.3359 21.387 21.5468 21.5376C21.6522 21.5979 21.7275 21.6581 21.7878 21.7184C21.9836 21.8238 22.1794 22.0347 22.2848 22.2606C22.4204 22.5016 22.6463 22.7576 22.6764 23.0438H22.6614ZM21.7426 24.5199C21.9234 23.9174 21.8631 23.1794 21.4866 22.4865C21.351 22.3359 21.351 22.3058 21.0196 22.0949L20.8841 22.0347C19.5586 21.5979 19.8448 23.2999 19.7695 24.053C19.6942 24.5801 19.8147 25.1073 20.2214 25.2127C20.387 25.2429 20.5527 25.2429 20.7335 25.2127H20.7033C20.9594 25.1675 21.4113 24.9266 21.4866 24.8362C21.592 24.7609 21.6974 24.5952 21.7276 24.4898L21.7426 24.5199ZM20.7184 25.2579H20.7033C20.7033 25.273 20.7184 25.2579 20.7184 25.2579Z" fill="#5ECFCA"/>
<path d="M27.1348 21.6724C26.8938 22.2899 26.6528 23.284 26.3516 24.0221C26.3064 24.1426 26.0955 24.7751 25.9599 25.1818C25.8545 25.724 25.3575 26.0403 24.7851 25.9048C24.017 25.3324 24.3333 25.1065 23.9718 23.9919C23.9718 23.9919 23.9115 23.7208 23.8061 23.51C23.6555 22.8924 23.4747 22.0339 23.294 21.5218C23.2337 20.9344 24.1073 20.9946 24.1375 21.5218C24.1375 21.5218 24.1375 21.5519 24.1375 21.567C24.2128 21.8381 24.4538 22.7719 24.5291 23.0581C24.7249 23.8865 25.1617 25.0764 25.6587 23.6003C25.6587 23.5702 25.6888 23.525 25.6888 23.5401C25.734 23.3895 26.0503 22.4556 26.1708 22.1544V22.1845C26.2009 22.049 26.2311 21.9134 26.2762 21.7778C26.2762 21.7578 26.2762 21.7527 26.2762 21.7628C26.2311 20.9645 27.3607 21.0097 27.1197 21.7327L27.1348 21.6724Z" fill="#5ECFCA"/>
<path d="M31.1407 25.0312C32.2402 26.0102 30.1014 25.8294 29.5742 25.8144C28.8814 25.7843 28.0681 26.2211 28.0078 24.9408C28.0379 24.1726 27.9928 23.3894 28.0229 22.6213C27.9325 21.4013 28.2488 20.9946 29.4538 21.1603C30.011 21.3109 31.5925 20.7837 31.4419 21.7778C30.7943 22.5158 28.8663 21.2356 28.776 22.6062C28.7157 23.5551 30.2068 22.7116 30.237 23.5099C30.237 24.0371 29.6947 23.9317 29.3031 23.9768C28.4295 24.022 28.791 25.1215 29.4688 25.0462C29.996 24.986 30.6135 25.0462 31.1256 25.0462L31.1407 25.0312Z" fill="#5ECFCA"/>
<path d="M36.413 22.4701C36.1419 23.1629 36.9854 26.3862 35.7051 25.8741C35.4943 25.1812 35.0424 24.0666 34.7261 23.9311C34.7412 23.9612 34.5303 23.7805 34.5303 23.7805C34.455 23.7202 34.3646 23.6449 34.3345 23.5997C32.8584 22.1387 33.2802 24.5938 33.235 25.4825C33.3254 25.8891 32.6174 25.9946 32.497 25.8138C32.256 25.3318 32.4819 24.8197 32.4367 24.3076C32.4216 23.6148 32.3614 22.3044 32.512 21.2953C32.6777 20.9639 33.2049 21.0543 33.3555 21.3254C33.6868 21.7471 34.0935 22.214 34.4701 22.6056C34.5152 22.6056 34.937 22.9822 34.9972 23.0575H34.9822C35.4943 23.5545 35.6449 22.681 35.5997 22.3195C35.419 20.3464 36.7745 20.6777 36.4432 22.4852L36.413 22.4701Z" fill="#5ECFCA"/>
<path d="M39.696 23.6754C39.6357 24.323 39.7412 25.2267 39.5906 25.7991C39.3195 26.1756 38.717 25.9045 38.8525 25.4376C38.8224 24.5941 38.9278 23.7205 38.8676 22.8771C39.0182 22.2445 38.7471 21.8529 37.9036 21.9432C37.5873 22.0487 37.3012 21.7776 37.3313 21.4613C37.5723 20.8287 38.3555 21.2203 38.8827 21.145C39.5153 21.2504 41.2775 20.7534 41.3829 21.5818C40.9311 22.8018 39.4851 20.6781 39.7111 23.6904L39.696 23.6754Z" fill="#5ECFCA"/>
<path d="M42.2412 22.9689C42.2713 22.487 42.2412 21.8845 42.2864 21.4326C42.2563 20.9205 43.2202 20.9356 43.1299 21.523C43.1901 22.6074 42.7834 24.0082 43.5667 24.8818C46.2627 26.4332 44.2294 21.0711 45.6603 21.041C46.338 21.3573 45.8561 22.5773 45.9615 23.1647C45.9916 24.3546 45.8862 25.6349 44.4854 25.9512C43.8528 26.1169 42.9642 25.6951 42.7081 25.183C42.6328 25.1077 42.5726 25.0023 42.5274 24.8969C42.2563 24.3697 42.2412 23.5865 42.2412 22.9539V22.9689Z" fill="#5ECFCA"/>
<path d="M50.359 25.3782C50.3891 25.4987 50.4795 25.6041 50.4042 25.7246V25.6945C50.3289 26.056 49.7867 26.056 49.6511 25.7246C49.4402 25.0167 48.6269 23.7816 47.919 24.9715C47.9642 26.2216 47.0605 26.2216 47.0906 25.3631C47.0906 24.0829 47.0906 22.667 47.1508 21.4018C47.3165 20.709 48.3257 20.95 48.7926 20.9349C52.0309 21.4169 48.9884 23.7816 50.359 25.3631V25.3782ZM49.5306 22.5465C49.5758 21.5223 47.678 21.2964 47.8738 22.5465C47.6177 23.9021 49.5155 23.9021 49.5306 22.5465Z" fill="#5ECFCA"/>
<path d="M54.5167 25.0312C55.6162 26.0102 53.4774 25.8294 52.9502 25.8144C52.2574 25.7843 51.444 26.2211 51.3838 24.9408C51.4139 24.1726 51.3687 23.3894 51.3989 22.6213C51.3085 21.4013 51.6248 20.9946 52.8297 21.1603C53.387 21.3109 54.9685 20.7837 54.8179 21.7778C54.1702 22.5158 52.2423 21.2356 52.1519 22.6062C52.0917 23.5551 53.5828 22.7116 53.6129 23.5099C53.6129 24.0371 53.0707 23.9317 52.6791 23.9768C51.8055 24.022 52.167 25.1215 52.8448 25.0462C53.372 24.986 53.9895 25.0462 54.5016 25.0462L54.5167 25.0312Z" fill="#5ECFCA"/>
<path d="M59.2166 23.7364C59.6836 24.5347 59.0961 25.7547 58.3732 26.0258C58.343 26.0409 58.2828 26.0861 58.2075 26.1162C57.5598 26.327 56.6561 26.2668 56.1139 25.7999C55.2855 25.3179 55.1349 23.9473 55.9332 23.2695C56.4904 22.5164 57.7255 23.2695 56.6109 23.7816C56.4904 23.8268 56.4001 23.8569 56.3248 23.9623C56.1892 24.113 56.144 24.4895 56.2193 24.7305C56.2796 24.9564 56.5808 25.1673 56.7314 25.3179C56.8218 25.3932 56.9724 25.4233 57.0929 25.4535H57.0779C57.4695 25.574 58.0719 25.4233 58.3581 25.0167C58.9757 24.0226 57.5297 23.1942 56.8519 22.5917H56.867C56.7766 22.5013 56.5959 22.2603 56.5808 22.185C56.2946 21.1458 57.2586 20.5885 58.1322 20.9048C58.81 21.1006 58.9455 22.5465 58.0418 22.3055C57.5448 22.2001 58.1623 21.5675 57.605 21.5675C56.5658 22.17 59.0058 22.9532 59.1413 23.7515L59.2166 23.7364Z" fill="#5ECFCA"/>
<path d="M66.7918 26.2814C66.7918 26.4922 66.6864 26.7031 66.6261 26.8989C66.355 27.3207 66.1893 27.4562 65.9182 27.5918C65.7827 27.6821 65.5116 27.7574 65.3007 27.7424H65.3459C64.894 27.8026 64.412 27.6972 64.0355 27.4562H64.0506C63.5083 27.1399 63.177 26.7935 62.9661 25.7392C62.9661 24.8806 62.7703 22.9828 63.2523 22.2297V22.2599C63.2824 22.1243 63.3426 22.0791 63.418 21.9888L63.3878 22.0189C64.3367 19.85 68.2076 21.567 66.0538 22.9979C65.2706 22.9226 66.1592 22.29 65.7525 21.9586C63.3125 20.6934 63.2372 25.9048 64.3669 26.7784C64.653 26.9742 64.9844 27.0194 65.376 26.9893H65.3609C65.4513 26.9742 65.5116 26.9441 65.5718 26.8989C65.6321 26.8839 65.7074 26.7935 65.7525 26.7634C65.9032 26.6278 66.0839 26.2663 65.9634 26.0404C65.7375 25.9048 65.5869 25.5885 65.9032 25.4078C65.9935 25.3475 66.114 25.3024 66.2345 25.3325C66.4906 25.3777 66.7316 25.694 66.7617 25.9199C66.8219 26.0253 66.8219 26.1759 66.8069 26.3115L66.7918 26.2814Z" fill="#5ECFCA"/>
<path d="M70.9638 25.3793C71.1746 26.4035 69.066 25.7107 68.343 25.9215C67.0477 26.1926 67.7857 23.3761 67.6502 22.5175C67.6954 22.0657 67.4393 21.2524 67.9665 20.9963C68.8099 20.9812 68.4334 21.7946 68.5087 22.3067C68.102 26.5692 69.5028 24.325 70.9638 25.3944V25.3793Z" fill="#5ECFCA"/>
<path d="M71.416 22.9689C71.4461 22.487 71.416 21.8845 71.4612 21.4326C71.4311 20.9205 72.395 20.9356 72.3047 21.523C72.3649 22.6074 71.9582 24.0082 72.7415 24.8818C75.4375 26.4332 73.4042 21.0711 74.8351 21.041C75.5128 21.3573 75.0309 22.5773 75.1363 23.1647C75.1664 24.3546 75.061 25.6349 73.6602 25.9512C73.0276 26.1169 72.139 25.6951 71.8829 25.183C71.8076 25.1077 71.7474 25.0023 71.7022 24.8969C71.4311 24.3697 71.416 23.5865 71.416 22.9539V22.9689Z" fill="#5ECFCA"/>
<path d="M80.1524 24.2024C80.1976 24.7145 79.9114 25.3923 79.3691 25.5579H79.4143C79.3541 25.5881 79.2336 25.6031 79.1733 25.6483C78.7817 25.8441 78.2847 25.9044 77.863 25.814L77.8931 25.8441C77.7876 25.814 77.5467 25.8441 77.5015 25.814C75.4229 26.1152 76.161 24.7446 76.1158 23.374C76.2062 22.4552 75.5886 20.8285 77.1852 21.0093C77.5768 21.0093 78.0738 20.934 78.4504 21.0996H78.4203C78.9474 21.3557 79.4595 21.8527 79.2035 22.4703C79.0378 23.0878 80.303 23.1631 80.1222 24.1873L80.1524 24.2024ZM79.083 23.6903C78.7667 23.2685 77.7123 23.5095 77.2755 23.6903C75.9802 24.6693 77.9081 25.6031 78.857 25.0458H78.8269C79.4445 24.85 79.5047 24.0969 79.083 23.6752V23.6903ZM76.899 22.4401C76.6731 23.1782 77.8479 22.8016 77.9081 22.7263C78.5257 22.4251 78.7064 22.0033 78.0136 21.6569L78.0437 21.687C77.5316 21.5364 76.7785 21.7925 76.899 22.4401Z" fill="#5ECFCA"/>
</g>
<defs>
<clipPath id="clip0_218_8299">
<rect width="94.6337" height="28" fill="white" transform="translate(0.791992)"/>
</clipPath>
</defs>
</svg>
