<svg width="82" height="28" viewBox="0 0 82 28" fill="none" xmlns="http://www.w3.org/2000/svg">
<path d="M78.9366 11.1342L72.386 7.08012C72.1146 6.90554 71.7464 6.90554 71.4751 7.08012L64.9244 11.1342C63.8004 11.8325 62.3662 11.0178 62.3662 9.69879V1.68759C62.3662 0.756506 63.1221 0 64.0523 0H79.8281C80.7584 0 81.5142 0.756506 81.5142 1.68759V9.69879C81.4948 11.0178 80.0607 11.8325 78.9366 11.1342Z" fill="#FFC306"/>
<path d="M72.9481 15.1296C72.3861 15.6727 71.4946 15.6727 70.9326 15.1296C69.2852 13.5778 66.1262 12.3945 62.3857 12.3945V12.6467V17.4961V18.1944C66.068 18.1944 69.1689 19.3389 70.8357 20.8519C71.4752 21.4338 72.4055 21.4338 73.045 20.8519C74.7118 19.3389 77.832 18.1944 81.495 18.1944V17.4961V12.6467V12.3945C77.7545 12.3945 74.5955 13.5778 72.9481 15.1296Z" fill="#4A45E2"/>
<path d="M73.045 22.7317C72.4055 23.3136 71.4752 23.3136 70.8357 22.7317C69.1689 21.2187 66.0487 20.0742 62.3857 20.0742V20.3264V21.82V23.3718C62.3857 24.2253 63.0447 24.9236 63.8974 24.9818C66.9014 25.234 69.4015 26.2621 70.855 27.5617C71.4946 28.1436 72.4249 28.1436 73.0644 27.5617C74.4986 26.2621 76.9987 25.234 80.022 24.9818C80.8748 24.9042 81.5337 24.2059 81.5337 23.3718V21.82V20.3264V20.0742C77.8127 20.0742 74.7118 21.2187 73.045 22.7317Z" fill="#5BBFD6"/>
<path d="M27.6576 8.84457C28.4328 8.84457 29.0336 8.24324 29.0336 7.48674C29.0336 6.71083 28.4134 6.12891 27.6576 6.12891C26.8823 6.12891 26.3203 6.73023 26.3203 7.48674C26.3203 8.26264 26.8823 8.84457 27.6576 8.84457Z" fill="#002863"/>
<path d="M23.8177 8.84457C24.5929 8.84457 25.1744 8.24324 25.1744 7.48674C25.1744 6.71083 24.5736 6.12891 23.8177 6.12891C23.0425 6.12891 22.4805 6.73023 22.4805 7.48674C22.4805 8.26264 23.0425 8.84457 23.8177 8.84457Z" fill="#002863"/>
<path d="M25.6598 10.1052C22.7915 10.1052 20.4077 12.1226 20.4077 15.0128C20.4077 16.0021 20.8341 17.2823 21.5124 17.8448H18.3534H17.6944H8.89567H5.29089C3.70169 17.8448 2.42257 16.681 2.42257 15.2456V12.8791V10.0664H0V13.8295H0.0581417V15.265C0.0581417 17.8836 2.40319 19.998 5.31027 19.998H8.91505V20.0174H17.6944H18.3534H30.8732V15.265C30.8732 12.1807 28.7995 10.1052 25.6598 10.1052ZM28.3925 17.8448H25.6017C24.1094 17.8448 22.9272 16.6228 22.9272 15.0322C22.9272 13.4416 24.0125 12.2583 25.6792 12.2583C27.6754 12.2583 28.3925 13.7519 28.3925 15.5947V17.8448Z" fill="#002863"/>
<path d="M33.2959 3.93689V20.0175H35.7766V2.98641C35.6216 2.92822 35.1371 2.71484 34.5944 2.71484C33.7804 2.71484 33.2959 3.12219 33.2959 3.93689Z" fill="#002863"/>
<path d="M41.3586 11.404V21.1609C41.3586 22.7515 40.3896 23.1007 39.4399 23.1007C38.7616 23.1007 38.1027 22.9455 37.7538 22.7709L37.1143 24.6525C37.4631 24.8271 38.529 25.1956 39.7113 25.1956C41.8237 25.1956 43.8393 24.2452 43.8393 20.9088V10.4535C43.6843 10.3953 43.316 10.2207 42.7152 10.2207C41.8625 10.2207 41.3586 10.5893 41.3586 11.404Z" fill="#002863"/>
<path d="M51.2427 10.1055C48.2774 10.1055 46.0293 12.278 46.0293 15.11C46.0293 18.3688 48.2968 20.0176 51.6109 20.0176H54.0141V20.3474C53.9559 22.5393 52.6768 23.2182 51.2233 23.2182C50.2736 23.2182 49.479 22.9855 49.0527 22.7333C48.8201 23.3734 48.5875 23.9941 48.3937 24.6731C48.9945 25.0028 50.1186 25.2938 51.3589 25.2938C54.5955 25.2938 56.4948 23.6256 56.4948 19.1447V16.2739C56.4948 12.4332 55.0413 10.1055 51.2427 10.1055ZM54.0141 17.8451H51.5721C49.7116 17.8451 48.5682 16.914 48.5682 15.1488C48.5682 13.5 49.6147 12.278 51.2233 12.278C53.1613 12.278 54.0141 13.4806 54.0141 16.2351V17.8451Z" fill="#002863"/>
<path d="M45.1375 6.4388H43.6258C43.2964 6.4388 43.025 6.32242 42.8118 6.08964C42.5599 6.34181 42.2692 6.49699 41.8041 6.49699C41.3002 6.49699 40.4668 6.32242 40.4668 5.15856V3.95591C40.4668 3.64555 40.6994 3.52916 40.9707 3.52916C41.1645 3.52916 41.3002 3.58736 41.3777 3.60675V5.17796C41.3777 5.48832 41.5909 5.68229 41.8622 5.68229C42.1335 5.68229 42.3467 5.48832 42.3467 5.21675V3.95591C42.3467 3.66495 42.5211 3.52916 42.8312 3.52916C43.025 3.52916 43.1413 3.58736 43.2576 3.60675V5.15856C43.2576 5.43013 43.3545 5.6047 43.684 5.6047H44.2266V3.93651C44.2266 3.64555 44.3817 3.50977 44.6918 3.50977C44.8856 3.50977 45.0212 3.56796 45.1375 3.58736V6.4388Z" fill="#002863"/>
</svg>
